<svg xmlns="http://www.w3.org/2000/svg" width="36.061" height="29.916">
  <g data-name="Group 92">
    <g data-name="Group 90">
      <path data-name="Path 86" d="M0 14.96a1.925 1.925 0 011.926-1.926h30.858a1.926 1.926 0 110 3.852H1.926A1.926 1.926 0 010 14.96z" fill="#ffc627"/>
      <g data-name="Group 89">
        <path data-name="Path 87" d="M18.708 29.301a1.927 1.927 0 01.1-2.726l10.981-10.2a1.928 1.928 0 000-2.824L18.808 3.342a1.927 1.927 0 01-.1-2.725 1.929 1.929 0 012.724-.1l14.013 13.032a1.926 1.926 0 010 2.824L21.427 29.399a1.929 1.929 0 01-2.719-.098z" fill="#ffc627"/>
      </g>
    </g>
  </g>
</svg>
