<svg xmlns="http://www.w3.org/2000/svg" width="16.901" height="20.373" viewBox="0 0 16.901 20.373">
  <g id="Group_223" data-name="Group 223" transform="translate(-266 -4809.349)">
    <g id="Group_90" data-name="Group 90" transform="translate(-1143.705 -955.017)">
      <path id="Path_86" data-name="Path 86" d="M1417.558,5784.677a1.087,1.087,0,0,1-1.088-1.088v-17.434a1.088,1.088,0,1,1,2.176,0v17.434A1.088,1.088,0,0,1,1417.558,5784.677Z" transform="translate(0.597 0.062)" fill="#ffc627"/>
      <g id="Group_89" data-name="Group 89" transform="translate(1409.705 5764.366)">
        <path id="Path_87" data-name="Path 87" d="M1426.26,5774.17h0a1.089,1.089,0,0,1-1.54-.055l-5.765-6.2a1.088,1.088,0,0,0-1.6,0l-5.768,6.2a1.089,1.089,0,0,1-1.54.055h0a1.09,1.09,0,0,1-.056-1.539l7.363-7.917a1.088,1.088,0,0,1,1.6,0l7.361,7.917A1.09,1.09,0,0,1,1426.26,5774.17Z" transform="translate(-1409.705 -5764.366)" fill="#ffc627"/>
      </g>
    </g>
  </g>
</svg>
