<svg xmlns="http://www.w3.org/2000/svg" width="36.06" height="29.916">
  <g data-name="Group 131">
    <g data-name="Group 90">
      <path data-name="Path 86" d="M36.06 14.956a1.925 1.925 0 00-1.926-1.926H3.276a1.926 1.926 0 100 3.852h30.858a1.926 1.926 0 001.926-1.926z" fill="#ffc627"/>
      <g data-name="Group 89">
        <path data-name="Path 87" d="M17.352 29.3a1.927 1.927 0 00-.1-2.726L6.27 16.371a1.928 1.928 0 010-2.824L17.255 3.339a1.927 1.927 0 00.097-2.725 1.929 1.929 0 00-2.724-.1L.616 13.548a1.926 1.926 0 000 2.824L14.629 29.4a1.929 1.929 0 002.723-.1z" fill="#ffc627"/>
      </g>
    </g>
  </g>
</svg>
