<svg xmlns="http://www.w3.org/2000/svg" width="170.009" height="170" viewBox="0 0 170.009 170">
  <g id="Group_207" data-name="Group 207" opacity="0.496">
    <g id="Group_207-2" data-name="Group 207">
      <path id="Path_301" data-name="Path 301" d="M11.334,153H82.166a2.833,2.833,0,1,0,0-5.666H11.334a5.668,5.668,0,0,1-5.668-5.668V51A2.835,2.835,0,0,1,8.5,48.166H28.6a2.839,2.839,0,0,1,2.132.967l16.432,18.8a8.518,8.518,0,0,0,6.4,2.9h68.267a2.832,2.832,0,0,1,2.832,2.832V76.5a2.834,2.834,0,1,0,5.668,0V73.666a8.5,8.5,0,0,0-8.5-8.5H119V8.5A8.5,8.5,0,0,0,110.5,0H28.334a8.5,8.5,0,0,0-8.5,8.5v34H8.5A8.5,8.5,0,0,0,0,51v90.666A11.334,11.334,0,0,0,11.334,153ZM25.5,8.5a2.834,2.834,0,0,1,2.834-2.834H110.5A2.835,2.835,0,0,1,113.334,8.5V65.166H53.567a2.831,2.831,0,0,1-2.13-.966L35,45.4a8.515,8.515,0,0,0-6.4-2.9H25.5Z" fill="#fff"/>
      <path id="Path_302" data-name="Path 302" d="M22.834,15.666H88A2.833,2.833,0,1,0,88,10H22.834a2.833,2.833,0,1,0,0,5.666Z" transform="translate(14 7)" fill="#fff"/>
      <path id="Path_303" data-name="Path 303" d="M22.834,22.333H88a2.833,2.833,0,1,0,0-5.666H22.834a2.833,2.833,0,1,0,0,5.666Z" transform="translate(14 11.667)" fill="#fff"/>
      <path id="Path_304" data-name="Path 304" d="M82.167,23.333h-51a2.834,2.834,0,0,0,0,5.668h51a2.834,2.834,0,1,0,0-5.668Z" transform="translate(19.833 16.333)" fill="#fff"/>
      <path id="Path_305" data-name="Path 305" d="M78.667,30h-42.5a2.833,2.833,0,1,0,0,5.666h42.5a2.833,2.833,0,1,0,0-5.666Z" transform="translate(23.333 21)" fill="#fff"/>
      <path id="Path_306" data-name="Path 306" d="M87.069,50.347a2.83,2.83,0,0,0-2.348,2.031l-2.627,9.236a31.623,31.623,0,0,0-4.083,1.7l-8.376-4.66a2.828,2.828,0,0,0-3.091.221,37.205,37.205,0,0,0-4.075,3.562,37.859,37.859,0,0,0-3.618,4.1,2.832,2.832,0,0,0-.218,3.085l4.651,8.4A31.543,31.543,0,0,0,61.6,82.09l-9.228,2.626a2.834,2.834,0,0,0-2.035,2.351,42.862,42.862,0,0,0,0,10.863,2.834,2.834,0,0,0,2.035,2.351l9.228,2.627a31.891,31.891,0,0,0,1.686,4.083l-4.655,8.378a2.835,2.835,0,0,0,.218,3.089,43.257,43.257,0,0,0,7.684,7.684,2.832,2.832,0,0,0,3.089.221L78.02,121.7a30.757,30.757,0,0,0,4.066,1.686l2.626,9.228a2.83,2.83,0,0,0,2.348,2.031,42.6,42.6,0,0,0,10.87,0,2.83,2.83,0,0,0,2.348-2.031l2.626-9.228a31.618,31.618,0,0,0,4.083-1.7l8.376,4.66a2.828,2.828,0,0,0,3.091-.221,37.373,37.373,0,0,0,4.083-3.57,37.862,37.862,0,0,0,3.618-4.1,2.832,2.832,0,0,0,.218-3.085l-4.651-8.4a31.548,31.548,0,0,0,1.683-4.066l9.228-2.627a2.834,2.834,0,0,0,2.035-2.351,42.864,42.864,0,0,0,0-10.863,2.834,2.834,0,0,0-2.035-2.351l-9.245-2.626a31.889,31.889,0,0,0-1.686-4.083l4.655-8.378a2.835,2.835,0,0,0-.218-3.089,43.258,43.258,0,0,0-7.684-7.684,2.832,2.832,0,0,0-3.089-.221l-8.395,4.658a30.761,30.761,0,0,0-4.066-1.686l-2.626-9.228a2.83,2.83,0,0,0-2.348-2.031A42.849,42.849,0,0,0,87.069,50.347ZM97.888,64.639a2.833,2.833,0,0,0,1.982,1.955,25.5,25.5,0,0,1,5.758,2.389,2.84,2.84,0,0,0,2.771,0l8.075-4.483q1.079.923,2.1,1.967,1.01.987,1.926,2.062L116.02,76.6a2.833,2.833,0,0,0,0,2.763,26.246,26.246,0,0,1,2.4,5.792,2.827,2.827,0,0,0,1.955,1.982l8.867,2.525c.068.925.105,1.882.105,2.856s-.037,1.933-.105,2.856l-8.867,2.524a2.832,2.832,0,0,0-1.955,1.984,25.657,25.657,0,0,1-2.387,5.755,2.838,2.838,0,0,0-.017,2.774l4.479,8.075c-.614.719-1.266,1.416-1.965,2.1q-.987,1-2.06,1.924l-8.055-4.495a2.833,2.833,0,0,0-2.763,0,26.306,26.306,0,0,1-5.8,2.4,2.827,2.827,0,0,0-1.982,1.955l-2.523,8.866a38.661,38.661,0,0,1-5.717,0l-2.521-8.866a2.832,2.832,0,0,0-1.984-1.955,25.689,25.689,0,0,1-5.758-2.389,2.832,2.832,0,0,0-2.771,0L68.522,120.5q-1.079-.923-2.1-1.965-1.012-.989-1.928-2.064l4.478-8.051a2.833,2.833,0,0,0,0-2.762,26.279,26.279,0,0,1-2.4-5.792,2.832,2.832,0,0,0-1.955-1.984L55.753,95.36c-.046-.928-.083-1.887-.083-2.861s.037-1.933.105-2.856l8.869-2.524A2.835,2.835,0,0,0,66.6,85.134a25.574,25.574,0,0,1,2.385-5.755A2.831,2.831,0,0,0,69,76.607l-4.479-8.075c.615-.721,1.266-1.418,1.967-2.106q.984-1,2.059-1.923l8.05,4.476a2.833,2.833,0,0,0,2.762,0,26.383,26.383,0,0,1,5.8-2.394,2.833,2.833,0,0,0,1.982-1.955l2.523-8.866a38.2,38.2,0,0,1,5.717,0Z" transform="translate(34.996 35.001)" fill="#fff"/>
      <path id="Path_307" data-name="Path 307" d="M69.145,69.142a19.832,19.832,0,1,0,14.022-5.809A19.833,19.833,0,0,0,69.145,69.142ZM97.332,83.167a14.166,14.166,0,1,1-4.15-10.018A14.166,14.166,0,0,1,97.332,83.167Z" transform="translate(44.334 44.333)" fill="#fff"/>
      <path id="Path_308" data-name="Path 308" d="M72.494,72.467a8.5,8.5,0,1,0,12.012,0A8.614,8.614,0,0,0,72.494,72.467ZM80.5,76.474a2.831,2.831,0,1,1-2.757-.772,2.833,2.833,0,0,1,2.757.772Z" transform="translate(49 49.02)" fill="#fff"/>
    </g>
  </g>
</svg>
