<svg xmlns="http://www.w3.org/2000/svg" width="160.378" height="160.375" viewBox="0 0 160.378 160.375">
  <g id="Group_287" data-name="Group 287" transform="translate(0.5 0.499)" opacity="0.502">
    <path id="Path_372" data-name="Path 372" d="M66.2,22.714A43.486,43.486,0,1,1,22.715,66.2,43.5,43.5,0,0,1,66.2,22.714Zm0,7.48A36.007,36.007,0,1,0,102.208,66.2,36,36,0,0,0,66.2,30.194Z" transform="translate(13.488 13.487)" fill="#fff" stroke="#fff" stroke-width="1"/>
    <path id="Path_373" data-name="Path 373" d="M47.654,3.742a3.739,3.739,0,1,1,7.478,0V23.476a3.739,3.739,0,1,1-7.478,0Z" transform="translate(28.296 0)" fill="#fff" stroke="#fff" stroke-width="1"/>
    <path id="Path_374" data-name="Path 374" d="M15.054,20.336a3.736,3.736,0,0,1,5.283-5.283L34.294,29.009a3.736,3.736,0,0,1-5.283,5.283Z" transform="translate(8.291 8.289)" fill="#fff" stroke="#fff" stroke-width="1"/>
    <path id="Path_375" data-name="Path 375" d="M3.739,55.132a3.74,3.74,0,0,1,0-7.48H23.478a3.74,3.74,0,1,1,0,7.48Z" transform="translate(0 28.294)" fill="#fff" stroke="#fff" stroke-width="1"/>
    <path id="Path_376" data-name="Path 376" d="M20.337,92.927a3.736,3.736,0,0,1-5.283-5.283L29.01,73.687a3.736,3.736,0,0,1,5.283,5.283Z" transform="translate(8.291 43.105)" fill="#fff" stroke="#fff" stroke-width="1"/>
    <path id="Path_377" data-name="Path 377" d="M55.132,106.4a3.739,3.739,0,1,1-7.478,0V86.66a3.739,3.739,0,0,1,7.478,0Z" transform="translate(28.296 49.236)" fill="#fff" stroke="#fff" stroke-width="1"/>
    <path id="Path_378" data-name="Path 378" d="M92.928,87.643a3.736,3.736,0,0,1-5.283,5.283L73.688,78.97a3.736,3.736,0,1,1,5.283-5.283Z" transform="translate(43.106 43.105)" fill="#fff" stroke="#fff" stroke-width="1"/>
    <path id="Path_379" data-name="Path 379" d="M106.4,47.652a3.74,3.74,0,0,1,0,7.48H86.663a3.74,3.74,0,1,1,0-7.48Z" transform="translate(49.238 28.294)" fill="#fff" stroke="#fff" stroke-width="1"/>
    <path id="Path_380" data-name="Path 380" d="M87.644,15.053a3.736,3.736,0,1,1,5.283,5.283L78.971,34.293a3.736,3.736,0,0,1-5.283-5.283Z" transform="translate(43.106 8.289)" fill="#fff" stroke="#fff" stroke-width="1"/>
  </g>
</svg>
