<svg xmlns="http://www.w3.org/2000/svg" width="154" height="144.199" viewBox="0 0 154 144.199">
  <path id="Path_388" data-name="Path 388" d="M163.73,48.262l-77-35.97-77,35.851,77,36.249Zm-77-27.207,58.2,27.207-58.2,27.207L28.53,48.262Zm49.474,86.6,27.526,12.866-77,35.97-77-35.851,27.526-12.866,3.346,7.21-11.95,5.656,58.079,27.088,58.2-27.207-11.95-5.658Zm0-35.851L163.73,84.671l-77,35.929-77-35.851L37.255,71.883l3.346,7.21-11.95,5.656,58.079,27.088,58.2-27.207-11.95-5.656Z" transform="translate(-9.729 -12.292)" fill="#fff" opacity="0.502"/>
</svg>
