<svg xmlns="http://www.w3.org/2000/svg" width="163" height="162.685" viewBox="0 0 163 162.685">
  <g id="Group_283" data-name="Group 283" transform="translate(-5.014 -5.102)" opacity="0.502">
    <path id="Path_381" data-name="Path 381" d="M74.481,5.1H73.412C44.187,5.1,20.5,28.054,20.5,56.369v1.036a50.384,50.384,0,0,0,16.78,37.436,22.247,22.247,0,0,1,7.328,16.5v.221a5.418,5.418,0,0,0-5.113,5.328l5.277,34.271c.891,5.788,6.094,8.52,12.113,9.83,3.417,4.056,9.769,6.792,17.061,6.792,7.553,0,14.108-2.928,17.425-7.227.261-.053.524-.092.784-.15,5.209-1.165,10.064-3.408,10.962-9.247,0-.016,5.281-34.36,5.281-34.36a5.418,5.418,0,0,0-5.113-5.33v-.125a22.244,22.244,0,0,1,7.328-16.5,50.374,50.374,0,0,0,16.78-37.436v-1.04C127.394,28.054,103.7,5.1,74.481,5.1ZM95.018,151.014a86.959,86.959,0,0,1-22.22,2.929A84.238,84.238,0,0,1,52,151.326a1.911,1.911,0,1,1,.94-3.7,81.07,81.07,0,0,0,41.1-.3,1.911,1.911,0,0,1,.975,3.7Zm1.571-13.809A87.362,87.362,0,0,1,72.8,140.563a84.48,84.48,0,0,1-22.287-3.007,1.911,1.911,0,0,1,1.005-3.687,81.331,81.331,0,0,0,44.036-.339,1.91,1.91,0,1,1,1.038,3.676Zm1.089-13.693a87.758,87.758,0,0,1-24.882,3.67,84.629,84.629,0,0,1-23.253-3.277,1.91,1.91,0,0,1,1.047-3.674A81.462,81.462,0,0,0,96.6,119.85a1.91,1.91,0,1,1,1.08,3.663ZM122.3,57.4a44.991,44.991,0,0,1-15.108,33.661,27.424,27.424,0,0,0-9,19.954,86.138,86.138,0,0,1-12.258,2.9L97.237,55.2a2.548,2.548,0,0,0-3.774-2.689A39.912,39.912,0,0,1,85.773,56a2.548,2.548,0,0,0,1.553,4.853,39.406,39.406,0,0,0,3.924-1.5L80.62,114.565c-2.3.208-4.6.326-6.879.326-2.152,0-4.308-.1-6.466-.286L56.643,59.358C66.868,63.889,75.4,63.018,81,56.742A13.552,13.552,0,0,0,83.32,42.218,12.125,12.125,0,0,0,71.9,35.025,13.018,13.018,0,0,0,58.73,47.859a2.547,2.547,0,1,0,5.094,0A7.918,7.918,0,0,1,71.9,40.12,7.069,7.069,0,0,1,78.671,44.3,8.446,8.446,0,0,1,77.2,53.352c-5.975,6.707-15.68,3.245-22.771-.841A2.546,2.546,0,0,0,50.655,55.2l11.314,58.762A81.29,81.29,0,0,1,49.7,111.045a27.416,27.416,0,0,0-9-19.983A44.993,44.993,0,0,1,25.594,57.4V56.369c0-25.459,21.452-46.172,47.819-46.172h1.069c26.367,0,47.819,20.713,47.819,46.172V57.4Z" transform="translate(12.568 0)" fill="#fff"/>
    <path id="Path_382" data-name="Path 382" d="M101.192,31.084H86.749a2.547,2.547,0,0,0,0,5.094h14.443a2.547,2.547,0,0,0,0-5.094Z" transform="translate(64.275 21.089)" fill="#fff"/>
    <path id="Path_383" data-name="Path 383" d="M23.881,33.631a2.547,2.547,0,0,0-2.547-2.547H7.561a2.547,2.547,0,0,0,0,5.094H21.334A2.547,2.547,0,0,0,23.881,33.631Z" transform="translate(0 21.089)" fill="#fff"/>
    <path id="Path_384" data-name="Path 384" d="M97.267,50.953,84.326,46.233a2.548,2.548,0,1,0-1.746,4.786L95.52,55.739a2.548,2.548,0,1,0,1.746-4.786Z" transform="translate(61.599 33.258)" fill="#fff"/>
    <path id="Path_385" data-name="Path 385" d="M25.869,17.3,12.658,11.854a2.548,2.548,0,0,0-1.94,4.712l13.211,5.442a2.548,2.548,0,0,0,1.94-4.712Z" transform="translate(3.349 5.325)" fill="#fff"/>
    <path id="Path_386" data-name="Path 386" d="M83.331,22.972a2.546,2.546,0,0,0,.969-.192l13.164-5.421a2.548,2.548,0,1,0-1.94-4.712L82.36,18.068a2.548,2.548,0,0,0,.971,4.9Z" transform="translate(61.499 5.968)" fill="#fff"/>
    <path id="Path_387" data-name="Path 387" d="M23.724,47.034l-12.908,4.7a2.547,2.547,0,0,0,.871,4.94,2.487,2.487,0,0,0,.871-.156l12.908-4.7a2.546,2.546,0,1,0-1.743-4.785Z" transform="translate(3.349 33.908)" fill="#fff"/>
  </g>
</svg>
