<svg id="research" xmlns="http://www.w3.org/2000/svg" width="67.424" height="55.811" viewBox="0 0 67.424 55.811">
  <path id="Path_433" data-name="Path 433" d="M60.99,0H6.433A6.441,6.441,0,0,0,0,6.434V42.805a6.441,6.441,0,0,0,6.433,6.433h.009L5.59,50.716a1.887,1.887,0,0,0,.687,2.577l.019.01,3.939,2.275a1.88,1.88,0,0,0,2.535-.708l3.192-5.634H60.99A6.442,6.442,0,0,0,67.424,42.8V6.434A6.441,6.441,0,0,0,60.99,0ZM3.773,10.229v-3.8a2.663,2.663,0,0,1,2.66-2.66H60.99a2.663,2.663,0,0,1,2.66,2.659v3.8ZM60.992,45.464H18.224l1.361-2.4a1.886,1.886,0,0,0-.666-2.566l-.338-.216,1.049-1.818a12.083,12.083,0,0,0,13.061-2.9l4.482,3.1a1.884,1.884,0,0,0,2.324-.136l8.995-7.98,8.128,7.223a1.916,1.916,0,0,0,1.368.473,1.886,1.886,0,0,0,1.136-3.292l-9.391-8.343a1.893,1.893,0,0,0-2.494,0L38.11,34.727l-3.235-2.243a12.121,12.121,0,0,0-5.326-16.038,12.117,12.117,0,0,0-13.2,20.177l-1.024,1.749L15,38.181a1.875,1.875,0,0,0-1.431-.195,1.807,1.807,0,0,0-1.1.8.816.816,0,0,0-.058.09L8.62,45.469H6.433A2.662,2.662,0,0,1,3.774,42.81V14H63.65v28.8a2.658,2.658,0,0,1-2.658,2.659Zm-43.416-23.6a8.294,8.294,0,0,1,5.8-2.937q.3-.021.591-.021a8.342,8.342,0,0,1,7.746,11.406l-6.219-4.3a1.886,1.886,0,0,0-2.148,3.1l6.22,4.312A8.348,8.348,0,0,1,18.207,33.3,8.444,8.444,0,0,1,17.576,21.863Z" fill="#8c1d40"/>
</svg>
