<?xml version="1.0" encoding="UTF-8"?>
<svg width="100px" height="100px" viewBox="0 0 100 100" version="1.1" xmlns="http://www.w3.org/2000/svg" xmlns:xlink="http://www.w3.org/1999/xlink">
    <!-- Generator: Sketch 64 (93537) - https://sketch.com -->
    <title>icon-senior-capstones</title>
    <desc>Created with Sketch.</desc>
    <g id="icon-senior-capstones" stroke="none" stroke-width="1" fill="none" fill-rule="evenodd">
        <g transform="translate(0.000000, 23.000000)" fill="#FFE393" fill-rule="nonzero" id="Path_361">
            <path d="M97.9056604,15.9632075 L50.4528302,0.114150943 C49.9834295,-0.0441640031 49.475061,-0.0441640031 49.0056604,0.114150943 L1.55660377,15.9632075 C0.62745388,16.2686043 -0.000566264332,17.1360984 -0.000566264332,18.1141509 C-0.000566264332,19.0922035 0.62745388,19.9596975 1.55660377,20.2650943 L9.05849057,22.754717 L9.05849057,47.540566 C9.00695155,48.3810107 9.42606115,49.1806343 10.1465283,49.6164446 C10.8669954,50.0522549 11.769797,50.0522549 12.4902642,49.6164446 C13.2107313,49.1806343 13.6298409,48.3810107 13.5783019,47.540566 L13.5783019,24.2707547 L18.0971698,25.7877358 L18.0971698,43.0132075 C18.0525396,44.0454479 18.7123689,44.9769715 19.7009434,45.2773585 L49.0773585,54.3339623 C49.5058244,54.4545768 49.9592699,54.4545768 50.3877358,54.3339623 L79.7622642,45.2773585 C80.7508387,44.9769715 81.4106679,44.0454479 81.3660377,43.0132075 L81.3660377,25.7877358 L97.9056604,20.3820755 C98.8333483,20.0757897 99.4599666,19.2090176 99.4599666,18.2320755 C99.4599666,17.2551334 98.8333483,16.3883612 97.9056604,16.0820755 L97.9056604,15.9632075 Z M76.845283,41.340566 L49.7301887,49.8037736 L22.6141509,41.3386792 L22.6141509,27.2820755 L49.009434,36.2226415 C49.4788346,36.3809565 49.9872031,36.3809565 50.4566038,36.2226415 L76.8490566,27.2820755 L76.845283,41.340566 Z M49.7301887,31.6962264 L9.41792453,18.1179245 L49.7301887,4.64622642 L90.0424528,18.1179245 L49.7301887,31.6962264 Z"></path>
        </g>
    </g>
</svg>