<svg xmlns="http://www.w3.org/2000/svg" width="66.682" height="79.941" viewBox="0 0 66.682 79.941">
  <g id="Group_289" transform="translate(774.501 -2.5)">
    <path id="Path_395" d="M-761.68,25.868c.168,0,.336.084.588.084v11.6A5.541,5.541,0,0,0-755.56,43.1h28.844a5.541,5.541,0,0,0,5.548-5.535V25.953c.168,0,.337-.084.5-.084a2.691,2.691,0,0,0,2.186-2.606V15.95a5.541,5.541,0,0,0-5.535-5.548h-7.58V8.048A5.541,5.541,0,0,0-737.128,2.5h-7.909a5.542,5.542,0,0,0-5.551,5.532v2.453h-7.567a5.542,5.542,0,0,0-5.542,5.542v7.32A2.52,2.52,0,0,0-761.68,25.868Zm36.9,11.685a1.9,1.9,0,0,1-1.876,1.928h-28.89a1.9,1.9,0,0,1-1.933-1.871V26.541c3.278.42,6.809.757,10.591.925V27.8a3.767,3.767,0,0,0,3.752,3.782h4.065a3.767,3.767,0,0,0,3.782-3.752v-.367a97.807,97.807,0,0,0,10.507-.925Zm-18.661-9.75V23.767a.223.223,0,0,1,.188-.253.229.229,0,0,1,.064,0h4.034a.223.223,0,0,1,.253.188.229.229,0,0,1,0,.064V27.8a.223.223,0,0,1-.188.253.229.229,0,0,1-.064,0h-4.035a.269.269,0,0,1-.253-.253Zm-3.7-19.755a1.9,1.9,0,0,1,1.871-1.933h7.963a1.9,1.9,0,0,1,1.933,1.871v2.5h-11.768V8.048Zm-13.113,7.987A1.9,1.9,0,0,1-758.38,14.1h34.272a1.9,1.9,0,0,1,1.935,1.869v6.62a114.516,114.516,0,0,1-13.2,1.345v-.084a3.767,3.767,0,0,0-3.752-3.782h-4.066a3.767,3.767,0,0,0-3.782,3.752v.114a87.412,87.412,0,0,1-13.281-1.345V16.035Z" fill="#8c1d40"/>
    <path id="Path_396" d="M-710.067,39.99a4.757,4.757,0,0,0-6.556,1.429l-4.707,7.14a4.631,4.631,0,0,0-3.278,1.008l-9.835,8.49a8.086,8.086,0,0,0-2.69,4.96l-1.346,9.083v8.574a1.724,1.724,0,0,0,1.681,1.765h11.937a1.724,1.724,0,0,0,1.765-1.681q0-.042,0-.084V73.361l6.977-5.461a13.326,13.326,0,0,0,4.876-7.817l3.278-15.047A4.522,4.522,0,0,0-710.067,39.99Zm-24.882,38.836V74.2h8.322v4.623Zm20.259-19.5a10.383,10.383,0,0,1-3.615,5.8l-7.14,5.548H-734.7l1.093-7.139a4.357,4.357,0,0,1,1.513-2.771l9.75-8.49a.766.766,0,0,1,1.008,0,.892.892,0,0,1,.168,1.008l-1.765,2.771a15.187,15.187,0,0,1-2.353,2.858l-2.771,2.522a1.784,1.784,0,0,0-.064,2.522,1.786,1.786,0,0,0,2.5.084l2.771-2.522a14.616,14.616,0,0,0,2.943-3.531l1.765-2.771a4.317,4.317,0,0,0-.168-4.8l4.623-6.893a1.161,1.161,0,0,1,1.595-.393c.029.018.058.037.085.057a1.384,1.384,0,0,1,.591,1.342Z" fill="#8c1d40"/>
    <path id="Path_397" d="M-745.205,63.022a8.086,8.086,0,0,0-2.69-4.96l-9.835-8.574a3.969,3.969,0,0,0-3.278-1.008l-4.707-7.14a4.833,4.833,0,0,0-6.556-1.429,4.759,4.759,0,0,0-2.1,5.127l3.2,15.047A13.737,13.737,0,0,0-766.3,67.9l6.977,5.464v7.313a1.724,1.724,0,0,0,1.685,1.761h11.928a1.724,1.724,0,0,0,1.765-1.681q0-.042,0-.084V71.849Zm-18.829,2.014a9.856,9.856,0,0,1-3.615-5.8l-3.277-15.043a1.242,1.242,0,0,1,.588-1.345,1.278,1.278,0,0,1,1.681.336l4.623,6.893a4.322,4.322,0,0,0-.168,4.8l1.681,2.771a17.267,17.267,0,0,0,2.943,3.531l2.771,2.522a1.785,1.785,0,0,0,2.523-.081,1.784,1.784,0,0,0-.081-2.523l-2.69-2.526a12.952,12.952,0,0,1-2.353-2.858l-1.765-2.771A.778.778,0,0,1-761,51.93a.766.766,0,0,1,1.008,0l9.747,8.486a4.568,4.568,0,0,1,1.513,2.771l1.092,7.14h-9.244Zm8.322,13.786V74.2h8.322v4.623Z" fill="#8c1d40"/>
  </g>
</svg>
