<?xml version="1.0" encoding="UTF-8"?>
<svg width="100px" height="100px" viewBox="0 0 100 100" version="1.1" xmlns="http://www.w3.org/2000/svg" xmlns:xlink="http://www.w3.org/1999/xlink">
    <!-- Generator: Sketch 64 (93537) - https://sketch.com -->
    <title>icon-learning-communities</title>
    <desc>Created with Sketch.</desc>
    <g id="icon-learning-communities" stroke="none" stroke-width="1" fill="none" fill-rule="evenodd" stroke-linecap="round">
        <g transform="translate(0.000000, 18.000000)" fill="#FFE393" fill-rule="nonzero" id="Path_366" stroke="#FFE393">
            <path d="M0.485046729,39.9981308 C1.3820028,32.7934378 6.31948014,26.7359518 13.1953271,24.4046729 C10.1296407,21.8099268 8.34843125,18.0068962 8.31775701,13.9906542 C8.31775701,6.57661855 14.3280204,0.56635514 21.7420561,0.56635514 C29.1560917,0.56635514 35.1663551,6.57661855 35.1663551,13.9906542 C35.1343902,18.0076208 33.3514385,21.8107278 30.2841121,24.4046729 C33.0693509,25.2837384 35.5880653,26.8507028 37.6074766,28.9607477 C39.8406764,24.1948609 44.6288956,21.1507021 49.8920561,21.1507021 C55.1552165,21.1507021 59.9434358,24.1948609 62.1766355,28.9607477 C63.9656356,27.0365128 66.1888217,25.5679539 68.6607477,24.6775701 L69.5018692,24.3915888 L68.8476636,23.7373832 C64.5888366,19.7233601 63.4145327,13.4160897 65.9433893,8.13831816 C68.472246,2.86054658 74.1237256,-0.176133564 79.9205607,0.628037383 C85.1997736,1.40552441 89.5276829,5.21572075 90.9678789,10.3538536 C92.4080748,15.4919865 90.6910518,20.9965507 86.5850467,24.4046729 C93.3888206,26.7809713 98.2909567,32.7644928 99.282243,39.9028037 C99.3623895,40.5080235 99.1779224,41.1184352 98.7760044,41.5779745 C98.3740864,42.0375139 97.7936799,42.3016327 97.1831776,42.3028037 L97.1831776,42.3028037 C96.1051736,42.291546 95.2049301,41.4779184 95.0850467,40.4065421 C94.104224,33.0383292 87.8340841,27.5256184 80.4009346,27.4962617 L75.5196262,27.4962617 C70.6243737,27.5087542 66.0535043,29.9464579 63.3158879,34.0046729 L63.3158879,34.4925234 C63.3524624,38.5234743 61.5568238,42.3530011 58.4345794,44.9028037 C65.2629733,47.3418237 70.1610135,53.3855157 71.1327103,60.571028 C71.2128867,61.1756628 71.0285991,61.7855207 70.6269971,62.2445711 C70.2253951,62.7036215 69.6454408,62.9673289 69.035514,62.9682243 L69.035514,62.9682243 C67.9574489,62.9575887 67.0575063,62.1427433 66.9401869,61.071028 C66.0326835,53.6371851 59.7403316,48.037044 52.2514019,47.9981308 L47.3700935,47.9981308 C39.8554881,48.0373067 33.5498903,53.6741351 32.6719626,61.1373832 C32.5626936,62.1719148 31.6944571,62.9597219 30.6542056,62.9682243 L30.6542056,62.9682243 C30.0684942,62.9659095 29.5118932,62.7125446 29.1255011,62.2723579 C28.739109,61.8321712 28.5600243,61.2474259 28.6336449,60.6663551 C29.5122885,53.4141853 34.4467424,47.296623 41.3485981,44.9028037 C38.2253257,42.3521788 36.429577,38.521042 36.4672897,34.488785 L36.4672897,34.0009346 C33.6885944,29.9048164 29.0505313,27.4638043 24.1009346,27.4925234 L19.382243,27.4925234 C11.8676791,27.4600309 5.50128112,33.0204189 4.52242991,40.471028 C4.40974039,41.5041276 3.54198771,42.2895622 2.50280374,42.2990654 L2.50280374,42.2990654 C1.91776725,42.2959178 1.3620978,42.0423344 0.976362582,41.602464 C0.590627361,41.1625936 0.411773948,40.5785692 0.485046729,39.9981308 Z M48.3224299,25.3317757 C44.3779396,25.9664654 41.285157,29.059248 40.6504673,33.0037383 C40.1085556,36.2634268 41.3256116,39.5673136 43.8526276,41.6964982 C46.3796437,43.8256829 49.8421082,44.4646136 52.9626168,43.3775701 C55.6339742,42.4190283 57.7367853,40.3162172 58.6953271,37.6448598 C59.7826755,34.5244158 59.14404,31.0618493 57.0150367,28.534629 C54.8860334,26.0074087 51.5821952,24.7900858 48.3224299,25.3317757 L48.3224299,25.3317757 Z M81.228972,5.14485981 C78.35362,4.09267991 75.1450788,4.51749735 72.642623,6.28171003 C70.1401673,8.0459227 68.6620012,10.925199 68.6869159,13.9869159 C68.6643171,16.4464011 69.6662153,18.8043661 71.4523364,20.4953271 C73.1247874,22.3079051 75.4950664,23.3150355 77.9607477,23.2607477 C81.0210264,23.2842792 83.8984636,21.8062262 85.6618188,19.304939 C87.4251741,16.8036518 87.8504455,13.5968731 86.8,10.7224299 C85.8409392,8.14336268 83.8075563,6.10895645 81.228972,5.14859813 L81.228972,5.14485981 Z M24.8121495,5.10186916 C21.6910045,4.0141458 18.2275636,4.65340714 15.7003747,6.78366644 C13.1731858,8.91392573 11.9570592,12.2192417 12.5009346,15.4794393 C13.1353515,19.424069 16.2282675,22.516985 20.1728972,23.1514019 C23.4327234,23.6939004 26.7370092,22.4770134 28.8663434,19.9498198 C30.9956776,17.4226262 31.6343742,13.9597971 30.546729,10.8392523 C29.588361,8.16692305 27.484635,6.06353984 24.8121495,5.10560748 L24.8121495,5.10186916 Z"></path>
        </g>
    </g>
</svg>