<?xml version="1.0" encoding="UTF-8"?>
<svg width="100px" height="100px" viewBox="0 0 100 100" version="1.1" xmlns="http://www.w3.org/2000/svg" xmlns:xlink="http://www.w3.org/1999/xlink">
    <!-- Generator: Sketch 64 (93537) - https://sketch.com -->
    <title>icon-coop-internships</title>
    <desc>Created with Sketch.</desc>
    <g id="icon-coop-internships" stroke="none" stroke-width="1" fill="none" fill-rule="evenodd">
        <g transform="translate(8.000000, 0.000000)" fill="#FFE393" fill-rule="nonzero">
            <path d="M15.9465347,29.0425743 C16.1554455,29.0425743 16.3643564,29.1475248 16.6782178,29.1475248 L16.6782178,43.5643564 C16.6763763,45.3936012 17.4022256,47.1484541 18.6956976,48.4419261 C19.9891696,49.7353982 21.7440226,50.4612474 23.5732673,50.4594094 L59.4059406,50.4594094 C61.2351853,50.4612474 62.9900383,49.7353982 64.2835103,48.4419261 C65.5769823,47.1484541 66.3028316,45.3936012 66.3009901,43.5643564 L66.3009901,29.1475248 C66.509901,29.1475248 66.7188119,29.0425743 66.9277228,29.0425743 C68.4868519,28.7443259 69.6215525,27.3912068 69.6435679,25.8039604 L69.6435679,16.7148515 C69.6454073,14.8850914 68.9191506,13.1297871 67.6250356,11.8362294 C66.3309206,10.5426716 64.5753036,9.81717095 62.7455446,9.81980198 L53.339604,9.81980198 L53.339604,6.8950495 C53.3414433,5.06700628 52.6165449,3.31320527 51.3245727,2.01993304 C50.0326004,0.726660816 48.2795293,-3.49532979e-06 46.4514851,-3.49532979e-06 L36.6316832,-3.49532979e-06 C34.8024384,-0.00184147881 33.0475855,0.724007789 31.7541135,2.0174798 C30.4606415,3.31095181 29.7347922,5.06580477 29.7366337,6.8950495 L29.7366337,9.92475248 L20.3306931,9.92475248 C18.5019628,9.9237001 16.7478736,10.6498977 15.4550444,11.9432841 C14.1622153,13.2366704 13.4367735,14.9910723 13.4386139,16.819802 L13.4386139,25.9089109 C13.4065868,27.4225724 14.4626456,28.7421246 15.9465347,29.0425743 Z M61.8092319,43.5643564 C61.8194593,44.2048393 61.5696787,44.8221922 61.1167275,45.2751434 C60.6637763,45.7280945 60.0464234,45.9778752 59.4059406,45.9673267 L23.5722772,45.9673267 C22.9317944,45.9778752 22.3144415,45.7280945 21.8614903,45.2751434 C21.4085391,44.8221922 21.1587585,44.2048393 21.1689859,43.5643564 L21.1689859,29.8782178 C25.2435644,30.4009901 29.6316832,30.8188119 34.3326733,31.0277228 L34.3326733,31.4455446 C34.3273811,32.6939395 34.820963,33.892732 35.7037195,34.7754885 C36.5864759,35.6582449 37.7852684,36.1518268 39.0336634,36.1465347 L44.0485149,36.1465347 C45.2969098,36.1518268 46.4957023,35.6582449 47.3784588,34.7754885 C48.2612152,33.892732 48.7547971,32.6939395 48.749505,31.4455446 L48.749505,31.0277228 C53.1198224,30.879791 57.478969,30.4960645 61.8079208,29.8782178 L61.8092319,43.5643564 Z M38.6158416,31.4455446 L38.6158416,26.4356436 C38.60341,26.3491845 38.6324531,26.2619228 38.6942176,26.2001582 C38.7559822,26.1383937 38.8432439,26.1093506 38.929703,26.1217822 L43.9445545,26.1217822 C44.0310135,26.1093506 44.1182753,26.1383937 44.1800398,26.2001582 C44.2418044,26.2619228 44.2708475,26.3491845 44.2584158,26.4356436 L44.2584158,31.4455446 C44.2708475,31.5320036 44.2418044,31.6192654 44.1800398,31.6810299 C44.1182753,31.7427945 44.0310135,31.7718376 43.9445545,31.7594059 L38.929703,31.7594059 C38.760575,31.749634 38.6256135,31.6146725 38.6158416,31.4455446 Z M34.0188119,6.89108911 C34.0082635,6.25060626 34.2580441,5.63325337 34.7109953,5.18030219 C35.1639464,4.727351 35.7812993,4.47757039 36.4217822,4.48811881 L46.2415842,4.48811881 C46.882067,4.47757039 47.4994199,4.727351 47.9523711,5.18030219 C48.4053223,5.63325337 48.6551029,6.25060626 48.6445545,6.89108911 L48.6445545,9.92079208 L34.019802,9.92079208 L34.0188119,6.89108911 Z M17.7214611,16.819802 C17.7112338,16.1793191 17.9610144,15.5619662 18.4139656,15.1090151 C18.8669167,14.6560639 19.4842696,14.4062833 20.1247525,14.4168317 L62.6465347,14.4168317 C63.2870175,14.4062833 63.9043704,14.6560639 64.3573216,15.1090151 C64.8102728,15.5619662 65.0600534,16.1793191 65.049826,16.819802 L65.049826,24.9683168 C59.6191044,25.8421758 54.1425743,26.4002093 48.6475248,26.639604 L48.6475248,26.5346535 C48.6528169,25.2862585 48.159235,24.087466 47.2764786,23.2047096 C46.3937221,22.3219531 45.1949296,21.8283712 43.9465347,21.8336634 L38.929703,21.8336634 C37.6816505,21.8289007 36.4833689,22.3227163 35.6010421,23.2054149 C34.7187152,24.0881136 34.2254045,25.2866031 34.2306931,26.5346535 L34.2306931,26.639604 C28.6941707,26.5038123 23.1761224,25.9450897 17.7247525,24.9683168 L17.7214611,16.819802 Z" id="Path_362"></path>
            <path d="M80.0910891,46.5930693 C77.3488994,44.8420286 73.7072204,45.6358527 71.9425743,48.3693069 L66.0920792,57.249505 C64.6236526,57.1307696 63.1655648,57.5793575 62.0178218,58.5029703 L49.7950495,69.0544554 C47.9769244,70.6408938 46.7904405,72.8286494 46.4524752,75.2178218 L44.780198,86.5009901 L44.780198,97.1574257 C44.7659353,97.7435826 44.9925113,98.3099755 45.4071095,98.7245737 C45.8217076,99.1391718 46.3881006,99.3657479 46.9742574,99.3514851 L61.7039604,99.3514851 C62.2901172,99.3657479 62.8565102,99.1391718 63.2711083,98.7245737 C63.6857065,98.3099755 63.9122826,97.7435826 63.8980198,97.1574257 L63.8980198,88.0683168 L72.5693069,81.2782178 C75.6805834,78.8635421 77.8290072,75.4186919 78.6287129,71.5623762 L82.7009901,52.8613861 C83.3349786,50.4231035 82.2681781,47.8609206 80.0910891,46.5930693 Z M49.1683168,94.8613861 L49.1683168,89.1188119 L59.5108911,89.1188119 L59.5108911,94.8613861 L49.1683168,94.8613861 Z M74.3455446,70.6217822 C73.7043903,73.463011 72.1212842,76.0039365 69.8534653,77.8316832 L60.9732673,84.7267327 L49.4811881,84.7267327 L50.839604,75.8465347 C51.0125792,74.5022542 51.683937,73.2719027 52.7207921,72.3990099 L64.839604,61.8475248 C65.1987201,61.5342934 65.7339531,61.5342934 66.0930693,61.8475248 C66.4183992,62.1803344 66.5017864,62.6806578 66.3019802,63.1009901 L64.1069307,66.5445545 C63.2803266,67.843405 62.2981328,69.0364014 61.1821782,70.0970297 L57.7346535,73.2306931 C56.8682273,74.0729126 56.8354394,75.4537226 57.6609138,76.3361171 C58.4863883,77.2185115 59.8663173,77.2777336 60.7643564,76.4693069 L64.2118812,73.3356436 C65.6543504,72.074791 66.8883976,70.5938008 67.8683168,68.9475248 L70.0623762,65.5 C71.2027257,63.6554161 71.1202855,61.3056734 69.8534653,59.5455446 L75.5960396,50.9792079 C75.8055588,50.6323659 76.1512075,50.3895538 76.5485516,50.310085 C76.9458958,50.2306161 77.3583454,50.3218086 77.6851485,50.5613861 C78.2293607,50.932073 78.5136162,51.5813604 78.4168317,52.2326733 L74.3455446,70.6217822 Z" id="Path_363"></path>
            <path d="M36.4227723,75.2188119 C36.0848071,72.8296394 34.8983231,70.6418839 33.080198,69.0554455 L20.8554455,58.3990099 C19.7570973,57.3860328 18.2589941,56.925134 16.7811881,57.1455446 L10.9306931,48.2653465 C9.1347331,45.5774538 5.53387869,44.7925288 2.78217822,46.4891089 C0.637016604,47.834904 -0.413206066,50.3971607 0.17029703,52.8613861 L4.14059406,71.5613861 C4.9820114,75.4008541 7.12220362,78.8325055 10.2,81.2772277 L18.8752475,88.0683168 L18.8752475,97.1574257 C18.8609848,97.7435826 19.0875608,98.3099755 19.502159,98.7245737 C19.9167572,99.1391718 20.4831501,99.3657479 21.0693069,99.3514851 L35.7960396,99.3514851 C36.3821964,99.3657479 36.9485894,99.1391718 37.3631875,98.7245737 C37.7777857,98.3099755 38.0043618,97.7435826 37.990099,97.1574257 L37.990099,86.1881188 L36.4227723,75.2188119 Z M13.0207921,77.729703 C10.7113703,75.9395784 9.11811313,73.3827114 8.52871287,70.5207921 L4.45445545,51.8168317 C4.30779249,51.1597854 4.60388005,50.4834717 5.18613861,50.1455446 C5.88715655,49.7316423 6.78734724,49.9116804 7.27524752,50.5633663 L13.0178218,59.129703 C11.7528485,60.8904629 11.6704479,63.2390744 12.8089109,65.0841584 L14.8980198,68.5316832 C15.9161026,70.1506035 17.1457783,71.6263476 18.5544554,72.919802 L22.0019802,76.0534653 C22.9000193,76.8618921 24.2799484,76.8026699 25.1054228,75.9202755 C25.9308973,75.037881 25.8981093,73.657071 25.0316832,72.8148515 L21.6891089,69.6811881 C20.5489258,68.6433669 19.5639255,67.4469616 18.7643564,66.1287129 L16.5732673,62.680198 C16.3197604,62.2689017 16.408981,61.7335783 16.7821782,61.4267327 C17.1412944,61.1135013 17.6765274,61.1135013 18.0356436,61.4267327 L30.1544554,71.9782178 C31.1714876,72.8671618 31.8384434,74.0894462 32.0356436,75.4257426 L33.3940594,84.3059406 L21.9009901,84.3059406 L13.0207921,77.729703 Z M23.3633663,94.8584158 L23.3633663,89.1158416 L33.7059406,89.1158416 L33.7059406,94.8584158 L23.3633663,94.8584158 Z" id="Path_364"></path>
        </g>
    </g>
</svg>