<svg xmlns="http://www.w3.org/2000/svg" width="58.658" height="59.558" viewBox="0 0 58.658 59.558">
  <g id="noun_Research_3187903" transform="translate(901.5 14.534)">
    <path id="Path_411" d="M-843.573,41.338l-6.872-5.887a10.474,10.474,0,0,0-4.08-14.24,10.522,10.522,0,0,0-2.415-.97,9.766,9.766,0,0,0-2.661-.357,10.475,10.475,0,0,0-10.475,10.475A10.475,10.475,0,0,0-859.6,40.834a9.614,9.614,0,0,0,2.619-.335,10.357,10.357,0,0,0,3.791-1.886l6.892,5.908a2.1,2.1,0,0,0,2.954-.23,2.1,2.1,0,0,0-.23-2.954h0Zm-14.5-4.88a5.6,5.6,0,0,1-1.529.189,6.287,6.287,0,0,1-6.287-6.287,6.287,6.287,0,0,1,6.287-6.287,5.722,5.722,0,0,1,1.572.209,6.287,6.287,0,0,1,4.511,7.661,6.287,6.287,0,0,1-4.511,4.511Z" fill="#8c1d40"/>
    <path id="Path_412" d="M-867.98,45.024H-899.4a2.1,2.1,0,0,1-2.095-2.1h0V-12.439a2.1,2.1,0,0,1,2.095-2.1h41.9a2.1,2.1,0,0,1,2.095,2.1h0V15.966a2.1,2.1,0,0,1-2.095,2.095,2.1,2.1,0,0,1-2.095-2.1v-26.31h-37.709V40.834h29.33a2.1,2.1,0,0,1,2.095,2.1A2.1,2.1,0,0,1-867.98,45.024Z" fill="#8c1d40"/>
    <path id="Path_413" d="M-888.93,8.96a2.094,2.094,0,0,1-2.1-2.085,2.093,2.093,0,0,1,.619-1.5l6.287-6.287a2.1,2.1,0,0,1,2.095-.5L-876.8.327l7.563-5.615a2.1,2.1,0,0,1,2.934.419,2.1,2.1,0,0,1-.419,2.934h0l-8.38,6.287a2.093,2.093,0,0,1-1.927.314l-5.049-1.676-5.369,5.364A2.1,2.1,0,0,1-888.93,8.96Z" fill="#8c1d40"/>
    <path id="Path_414" d="M-867.98,17.789h-20.95a2.1,2.1,0,0,1-2.095-2.1,2.1,2.1,0,0,1,2.095-2.1h20.95a2.1,2.1,0,0,1,2.095,2.1A2.1,2.1,0,0,1-867.98,17.789Z" fill="#8c1d40"/>
    <path id="Path_415" d="M-874.265,26.169H-888.93a2.1,2.1,0,0,1-2.095-2.095,2.1,2.1,0,0,1,2.095-2.095h14.665a2.1,2.1,0,0,1,2.095,2.095A2.1,2.1,0,0,1-874.265,26.169Z" fill="#8c1d40"/>
    <path id="Path_416" d="M-874.265,34.55H-888.93a2.1,2.1,0,0,1-2.095-2.1,2.1,2.1,0,0,1,2.095-2.095h14.665a2.1,2.1,0,0,1,2.095,2.095A2.1,2.1,0,0,1-874.265,34.55Z" fill="#8c1d40"/>
  </g>
</svg>
