<?xml version="1.0" encoding="UTF-8"?>
<svg width="100px" height="100px" viewBox="0 0 100 100" version="1.1" xmlns="http://www.w3.org/2000/svg" xmlns:xlink="http://www.w3.org/1999/xlink">
    <!-- Generator: Sketch 64 (93537) - https://sketch.com -->
    <title>icon-undergraduate-research-and-creative-activity</title>
    <desc>Created with Sketch.</desc>
    <g id="icon-undergraduate-research-and-creative-activity" stroke="none" stroke-width="1" fill="none" fill-rule="evenodd">
        <g transform="translate(8.000000, 13.000000)" fill="#FFE393" fill-rule="nonzero">
            <path d="M79.893,9.274 L73.58,9.274 L73.58,2.133 C73.58,0.954976629 72.6250234,-1.69530142e-06 71.447,-1.69530142e-06 L58.266,-1.69530142e-06 C52.0663043,-0.00230290555 46.0954187,2.34167966 41.553,6.561 C37.0169449,2.34812878 31.0566428,0.00465527159 24.866,-1.69530142e-06 L11.693,-1.69530142e-06 C10.5149766,-1.69530142e-06 9.56,0.954976629 9.56,2.133 L9.56,2.133 L9.56,9.274 L3.238,9.274 C1.46185224,9.274 0.022,10.7138522 0.022,12.49 L0.022,12.49 L0.022,50.028 C0.022,51.2060234 0.976976629,52.161 2.155,52.161 C3.33302337,52.161 4.288,51.2060234 4.288,50.028 L4.288,13.539 L9.552,13.539 L9.552,21.849 C9.552,23.0270234 10.5069766,23.982 11.685,23.982 C12.8630234,23.982 13.818,23.0270234 13.818,21.849 L13.818,4.266 L24.908,4.266 C30.3842981,4.27228985 35.6250178,6.49424823 39.437,10.426 L39.437,15.289 C39.437,16.4670234 40.3919766,17.422 41.57,17.422 C42.7480234,17.422 43.703,16.4670234 43.703,15.289 L43.703,10.425 C47.519249,6.47596983 52.7743173,4.24410846 58.266,4.24 L69.357,4.24 L69.357,51.308 L58.266,51.308 C51.2814295,51.3111914 44.6290087,54.2898873 39.975,59.498 C39.4571468,60.0649066 39.2839504,60.8663958 39.5215187,61.5965439 C39.7590871,62.326692 40.3707546,62.8728099 41.1230513,63.0264477 C41.8753481,63.1800855 42.6521667,62.9175311 43.157,62.339 C47.001872,58.0376293 52.4967003,55.5773398 58.266,55.574 L71.413,55.574 C72.5910234,55.574 73.546,54.6190234 73.546,53.441 L73.546,13.541 L78.81,13.541 L78.81,61.741 L58.863,61.741 C54.0608346,61.7422012 49.4868811,63.7903866 46.288,67.372 L46.109,67.56 C45.8812933,67.7944828 45.6359042,68.0111206 45.375,68.208 L45.051,68.438 C44.8185261,68.5903196 44.576343,68.7272783 44.326,68.848 L44.147,68.933 L43.797,69.078 C43.621793,69.1582131 43.4425534,69.2293081 43.26,69.291 C43.1121758,69.3158873 42.9666752,69.353015 42.825,69.402 C42.5434891,69.4581565 42.2585076,69.4952409 41.972,69.513 C41.445685,69.5456258 40.9173845,69.5055826 40.402,69.394 L39.902,69.294 C39.6903933,69.2402945 39.4823262,69.1734993 39.279,69.094 L38.997,68.915 L38.897,68.864 L38.837,68.864 C38.5650701,68.7319046 38.3027575,68.5808661 38.052,68.412 L37.822,68.25 C37.5177328,68.035772 37.2323581,67.7958967 36.969,67.533 L36.884,67.448 L36.824,67.38 C33.6447514,63.777334 29.0617756,61.7270841 24.257,61.758 L20.813,61.758 C19.6349766,61.758 18.68,62.7129766 18.68,63.891 C18.68,65.0690234 19.6349766,66.024 20.813,66.024 L24.268,66.024 C27.8520955,65.9846292 31.2766333,67.5036863 33.653,70.187 L33.807,70.358 L33.918,70.477 C34.3358458,70.9140098 34.7894185,71.3154016 35.274,71.677 L35.692,71.967 C36.1105703,72.2482454 36.5483058,72.4998598 37.002,72.72 L37.053,72.72 L37.181,72.78 L37.727,73.019 L37.827,73.019 C38.1477149,73.1404297 38.4752777,73.2429391 38.808,73.326 C38.987,73.377 39.218,73.437 39.491,73.488 C40.1788448,73.6283597 40.8789818,73.6997134 41.581,73.701 L42.187,73.701 C42.6617635,73.6851494 43.1348773,73.6367021 43.603,73.556 C43.8532449,73.5091235 44.1009069,73.4493775 44.345,73.377 C44.6659698,73.2945832 44.9821219,73.1944295 45.292,73.077 C45.5185214,72.9948866 45.7405032,72.9007529 45.957,72.795 L46.196,72.684 C46.6084674,72.4826127 47.0073189,72.2544589 47.39,72.001 C47.569,71.882 47.748,71.762 47.927,71.626 C48.3604528,71.2992625 48.7683066,70.9398831 49.147,70.551 L49.47,70.22 C51.8588166,67.5492208 55.2717748,66.0218448 58.855,66.02 L79.893,66.02 C81.6691478,66.02 83.109,64.5801478 83.109,62.804 L83.109,12.464 C83.0941797,10.6982429 81.6588192,9.27448671 79.893,9.274 Z" id="Path_359"></path>
            <path d="M1.706,66.912 C3.98071043,69.1825081 7.66428957,69.1825081 9.939,66.912 L22.289,54.558 C30.6442243,58.8495253 40.8802194,56.4171902 46.4117611,48.8258129 C51.9433028,41.2344357 51.1225512,30.7454788 44.4775286,24.1069069 C37.8325061,17.468335 27.3427569,16.657771 19.7567557,22.196683 C12.1707544,27.7355951 9.74836192,37.9739477 14.048,46.325 L1.706,58.679 C-0.564508125,60.9537104 -0.564508125,64.6372896 1.706,66.912 Z M20.54,27.131 L20.54,27.131 C25.5321792,22.1380389 33.3561213,21.3667306 39.2271679,25.2887613 C45.0982146,29.210792 47.3812659,36.7338673 44.6801434,43.2573212 C41.9790209,49.7807751 35.0459933,53.4878109 28.1208885,52.1114255 C21.1957836,50.7350402 16.207259,44.6585603 16.2059998,37.598 C16.2053,33.6722831 17.7643163,29.9071185 20.54,27.131 L20.54,27.131 Z M4.715,61.691 L16.479,49.931 C16.812,50.323 17.153,50.716 17.528,51.083 C17.903,51.45 18.287,51.791 18.688,52.132 L6.916,63.892 C6.55373269,64.3160743 5.99274297,64.5146677 5.44435024,64.4129722 C4.89595751,64.3112766 4.44347566,63.924742 4.25735024,63.3989722 C4.07122482,62.8732023 4.17973269,62.2880743 4.542,61.864 C4.5948923,61.8017488 4.65274883,61.7438923 4.715,61.691 Z" id="Path_360"></path>
            <circle id="Ellipse_39" cx="31.009" cy="37.598" r="2.133"></circle>
            <circle id="Ellipse_40" cx="38.619" cy="37.598" r="2.133"></circle>
            <circle id="Ellipse_41" cx="23.399" cy="37.598" r="2.133"></circle>
        </g>
    </g>
</svg>