<svg xmlns="http://www.w3.org/2000/svg" width="58.465" height="52.06" viewBox="0 0 58.465 52.06">
  <g id="thumbsup" transform="translate(0 0)">
    <path id="Path_440" data-name="Path 440" d="M58.465,20.686V20.68a5.7,5.7,0,0,0-5.687-5.632H38.736c1.238-4.865,1.032-8.7-.607-11.385A7.587,7.587,0,0,0,33.685.168a4.151,4.151,0,0,0-3.612.626C28.525,1.9,27.74,4.05,27.74,7.185c0,3.085-4.5,6.588-8.755,8.867H.625A.625.625,0,0,0,0,16.677V46.09a6,6,0,0,0,5.972,5.97H19.341a.625.625,0,0,0,.625-.625V46.977c.25.112.5.212.759.3a16.3,16.3,0,0,0,5.9,1.042h20.8a5.7,5.7,0,0,0,5.688-5.636,5.586,5.586,0,0,0-.487-2.29,5.6,5.6,0,0,0,3.159-5.068,5.7,5.7,0,0,0-.824-2.909,5.586,5.586,0,0,0,2.161-4.443,5.7,5.7,0,0,0-.823-2.911A5.536,5.536,0,0,0,58.465,20.686Zm-42.423-.712v28.16H5.974a2.06,2.06,0,0,1-2.05-2.049V19.974Zm30.3,2.493a1.962,1.962,0,0,0,0,3.924h4.967a1.717,1.717,0,0,1,1.771,1.66,1.718,1.718,0,0,1-1.663,1.77H45.675a1.962,1.962,0,0,0,0,3.924h4.285a1.761,1.761,0,0,1,1.774,1.728,1.6,1.6,0,0,1-1.569,1.637H45.075a1.962,1.962,0,0,0,0,3.924h2.293a1.729,1.729,0,0,1,1.77,1.66,1.717,1.717,0,0,1-1.657,1.771H26.616a11.3,11.3,0,0,1-4.478-.84,4.716,4.716,0,0,1-2.172-1.448V19.867c4.477-2.287,11.563-6.832,11.563-12.683,0-2.6.662-3.158.659-3.158h0a.353.353,0,0,1,.255-.06l.208.07a3.468,3.468,0,0,1,1.992,1.658c.893,1.53,1.526,4.642-.518,10.776l-.6,1.737a.625.625,0,0,0,.59.83H52.648a1.716,1.716,0,0,1,.114,3.43Z" fill="#8c1d40"/>
  </g>
</svg>
