<?xml version="1.0" encoding="UTF-8"?>
<svg width="100px" height="100px" viewBox="0 0 100 100" version="1.1" xmlns="http://www.w3.org/2000/svg" xmlns:xlink="http://www.w3.org/1999/xlink">
    <!-- Generator: Sketch 64 (93537) - https://sketch.com -->
    <title>icon-get-started</title>
    <desc>Created with Sketch.</desc>
    <g id="icon-get-started" stroke="none" stroke-width="1" fill="none" fill-rule="evenodd">
        <g transform="translate(13.000000, 13.000000)" fill="#FFC627" fill-rule="nonzero">
            <path d="M36.877,73.755 L28.484,68.193 L18.432,68.819 L13.957,59.797 L4.935,55.321 L5.561,45.27 L0,36.878 L5.561,28.485 L4.935,18.433 L13.958,13.958 L18.433,4.936 L28.484,5.562 L36.877,0 L45.269,5.562 L55.324,4.935 L59.8,13.957 L68.822,18.433 L68.196,28.484 L73.758,36.877 L68.196,45.269 L68.821,55.321 L59.8,59.796 L55.324,68.818 L45.272,68.192 L36.877,73.755 Z M29.029,66.155 L36.877,71.355 L44.723,66.155 L54.123,66.74 L58.307,58.305 L66.743,54.12 L66.159,44.72 L71.359,36.874 L66.159,29.027 L66.744,19.627 L58.307,15.442 L54.124,7.015 L44.724,7.6 L36.877,2.4 L29.029,7.6 L19.635,7.015 L15.45,15.45 L7.013,19.635 L7.598,29.035 L2.398,36.882 L7.598,44.728 L7.013,54.128 L15.449,58.313 L19.634,66.749 L29.029,66.155 Z" id="Path_15"></path>
            <polygon id="Path_16" points="31.879 52.459 17.965 38.545 24.328 32.181 31.965 39.817 50.165 22.106 56.44 28.556"></polygon>
        </g>
    </g>
</svg>