<?xml version="1.0" encoding="UTF-8"?>
<svg width="100px" height="100px" viewBox="0 0 100 100" version="1.1" xmlns="http://www.w3.org/2000/svg" xmlns:xlink="http://www.w3.org/1999/xlink">
    <!-- Generator: Sketch 64 (93537) - https://sketch.com -->
    <title>icon-learn-to-thrive</title>
    <desc>Created with Sketch.</desc>
    <g id="icon-learn-to-thrive" stroke="none" stroke-width="1" fill="none" fill-rule="evenodd">
        <g transform="translate(12.000000, 13.000000)" fill="#FFC627" fill-rule="nonzero">
            <path d="M50.403,23.511 L50.249,23.56 L40.333,20.229 L39.649,22.721 L49.411,25.908 L49.411,70.503 L23.759,64.161 L23.759,55.261 L21.787,55.261 L21.787,64.243 L2.054,70.827 L2.054,38.487 L0.08,38.487 L0.002,73.78 L22.802,66.172 L50.418,73.072 L74.107,64.225 C74.229,46.291 74.307,19.898 74.047,16.281 C71.599,16.791 58.894,20.778 50.403,23.511 Z M72.103,62.445 L51.387,70.314 L51.387,25.914 L72.104,19.035 L72.103,62.445 Z" id="Path_95"></path>
            <path d="M17.687,-1.77635684e-15 C8.02137577,0.24254936 0.243095857,8.0203895 2.84217094e-14,17.686 C2.84217094e-14,24.97 3.807,29.186 7.839,33.646 C11.168,37.329 14.609,41.136 16.418,47.146 L16.418,47.146 C16.5849998,47.7069447 17.1007241,48.0915017 17.686,48.0915017 C18.2712759,48.0915017 18.7870002,47.7069447 18.954,47.146 C20.762,41.132 24.203,37.324 27.532,33.646 C31.563,29.184 35.371,24.971 35.371,17.685 C35.1279506,8.02069507 27.3512912,0.243595913 17.687,-1.77635684e-15 Z M17.663,24.4180149 C13.9375883,24.3937369 10.9349143,21.3583133 10.9509986,17.6328576 C10.9672126,13.9074019 13.9960892,10.8981239 17.7215712,10.9061429 C21.4470533,10.9141941 24.463,13.9365093 24.463,17.662 C24.4459174,21.4037137 21.4037446,24.4257574 17.662,24.4180149 L17.663,24.4180149 Z" id="Path_96"></path>
        </g>
    </g>
</svg>