<svg id="transform" xmlns="http://www.w3.org/2000/svg" width="65.995" height="66" viewBox="0 0 65.995 66">
  <path id="noun_process_2067352" d="M21.353,0H40.765a1.941,1.941,0,0,1,1.941,1.941V21.353a1.941,1.941,0,0,1-1.941,1.941H21.353a1.941,1.941,0,0,1-1.941-1.941V1.941A1.941,1.941,0,0,1,21.353,0Zm1.941,3.882V19.411H38.823V3.882Zm30.8,34.949L65.741,59.213a1.941,1.941,0,0,1-1.686,2.9H40.765a1.942,1.942,0,0,1-1.686-2.9L50.726,38.831a1.941,1.941,0,0,1,3.374,0h-.006Zm-9.988,19.4h16.6L52.406,43.7Zm15.1-30.892L60.745,25.8a1.941,1.941,0,1,1,2.745,2.745L58.637,33.4a1.941,1.941,0,0,1-2.745,0h0l-4.853-4.853A1.941,1.941,0,1,1,53.784,25.8l1.539,1.539V13.588H48.529a1.941,1.941,0,0,1,0-3.882h8.735a1.941,1.941,0,0,1,1.941,1.941ZM30.892,46.584l1.539,1.539a1.941,1.941,0,1,1-2.745,2.745l-4.853-4.853a1.941,1.941,0,0,1,0-2.745h0l4.853-4.853a1.941,1.941,0,0,1,2.745,2.745L30.892,42.7h9.873a1.941,1.941,0,1,1,0,3.882ZM12.132,66A12.132,12.132,0,1,1,24.264,53.868,12.132,12.132,0,0,1,12.132,66Zm0-3.882a8.25,8.25,0,1,0-8.25-8.25,8.25,8.25,0,0,0,8.25,8.25ZM8.9,11.647,7.363,10.108a1.941,1.941,0,0,1,2.745-2.745l4.853,4.853a1.941,1.941,0,0,1,0,2.745h0l-4.853,4.853a1.941,1.941,0,1,1-2.745-2.745L8.9,15.53H3.882V34.942a1.941,1.941,0,1,1-3.882,0V13.588a1.941,1.941,0,0,1,1.941-1.941Z" fill="#8c1d40"/>
</svg>
