<?xml version="1.0" encoding="UTF-8"?>
<svg width="100px" height="100px" viewBox="0 0 100 100" version="1.1" xmlns="http://www.w3.org/2000/svg" xmlns:xlink="http://www.w3.org/1999/xlink">
    <!-- Generator: Sketch 64 (93537) - https://sketch.com -->
    <title>icon-service-learning</title>
    <desc>Created with Sketch.</desc>
    <g id="icon-service-learning" stroke="none" stroke-width="1" fill="none" fill-rule="evenodd">
        <g transform="translate(6.000000, 11.000000)" fill="#FFE393" fill-rule="nonzero" id="Path_365">
            <path d="M78.4,44.7 C83.3252255,39.8030111 86.0962387,33.1453821 86.1004734,26.2 C86.1421803,19.2455047 83.3640659,12.5708144 78.4,7.7 C68.79876,-1.95969766 53.3839758,-2.61286649 43,6.2 C32.6023974,-2.51205807 17.2668255,-1.81696133 7.7,7.8 C2.77158391,12.6948467 -1.08849493e-05,19.3538637 -1.08849493e-05,26.3 C-1.08849493e-05,33.2461363 2.77158391,39.9051533 7.7,44.8 C8.12420075,45.2293451 8.6967775,45.4798474 9.3,45.5 C9.47282183,45.515564 9.64645831,45.4808367 9.8,45.4 C10.1773447,46.7612247 10.9008394,48.0015013 11.9,49 C13.4263134,50.5557478 15.5206692,51.4223777 17.7,51.4 L17.9,51.4 C17.7814406,53.6551734 18.6588546,55.8487085 20.3,57.4 C21.8370669,58.9397383 23.9243721,59.8034508 26.1,59.8 L26.3,59.8 L26.3,60 C26.3046498,62.1740169 27.1671322,64.2583492 28.7,65.8 C30.2263134,67.3557478 32.3206692,68.2223777 34.5,68.2 L34.5,68.2 C34.4665481,70.459895 35.371786,72.6324658 37,74.2 C38.5939354,75.7891619 40.7492441,76.6872072 43,76.7001716 C45.256205,76.714479 47.4215923,75.8122343 49,74.2 C49.167058,74.0246609 49.3024015,73.8216455 49.4,73.6 L78.2,44.7 C78.2,44.8 78.3,44.7 78.4,44.7 Z M4.49981065,26.3 C4.4759493,20.5639846 6.74393302,15.0559551 10.7999441,10.9999441 C14.8559551,6.94393302 20.3639846,4.6759493 26.1,4.7 C31.8385583,4.6628847 37.3514185,6.93288598 41.4,11 L41.4,11 L50.5,20.1 L50.5,20.1 C52.3998175,22.0385913 52.3841255,25.1455209 50.4648232,27.0648232 C48.5455209,28.9841255 45.4385913,28.9998175 43.5,27.1 L43.5,27.1 L42.9,26.4 L42.9,26.4 L34.5,18 L34.5,18 L28.2,11.7 C27.6313378,11.1138889 26.7910018,10.8796244 26.0011324,11.0870113 C25.211263,11.2943982 24.5943982,11.911263 24.3870113,12.7011324 C24.1796244,13.4910018 24.4138889,14.3313378 25,14.9 L29.7,19.6 L11.9,37.3 C10.9950895,38.1978484 10.3105209,39.2931581 9.9,40.5 C6.4162846,36.5910115 4.49398286,31.5360699 4.49981065,26.3 Z M15.1,45.8 C14.3969076,45.1176978 14.0001189,44.1797322 14.0001189,43.2 C14.0001189,42.2202678 14.3969076,41.2823022 15.1,40.6 L32.9,22.8 L38.1,28 L20.3,45.8 C18.849369,47.2000247 16.550631,47.2000247 15.1,45.8 L15.1,45.8 Z M40.3,71.1 C39.1467422,69.8948867 38.8673018,68.0984842 39.6,66.6 C39.8878315,66.3920233 40.1556561,66.1576768 40.4,65.9 L59.8,46.5 C60.3861111,45.9313378 60.6203756,45.0910018 60.4129887,44.3011324 C60.2056018,43.511263 59.588737,42.8943982 58.7988676,42.6870113 C58.0089982,42.4796244 57.1686622,42.7138889 56.6,43.3 L38,61.8 C37.6264444,61.9236901 37.2849292,62.1285993 37,62.4 C36.7,62.7 36.5,63 36.2,63.3 C34.7481623,64.0156893 33.0072047,63.778286 31.8,62.7 C31.0969076,62.0176978 30.7001189,61.0797322 30.7001189,60.1 C30.7001189,59.1202678 31.0969076,58.1823022 31.8,57.5 L51.2,38.1 C52.0610197,37.2125606 52.0503355,35.7983231 51.1760062,34.9239938 C50.3016769,34.0496645 48.8874394,34.0389803 48,34.9 L28.8,54.2 C27.8726513,55.1365433 26.5149746,55.5051213 25.241338,55.1660951 C23.9677015,54.8270688 22.9729312,53.8322985 22.6339049,52.558662 C22.2948787,51.2850254 22.6634567,49.9273487 23.6,49 L41.5,31.1 C45.2769556,33.9426213 50.5731057,33.5582233 53.9,30.2 C57.5998831,26.4995163 57.5998831,20.5004837 53.9,16.8 L53.9,16.8 L46.3,9.4 C55.2221373,2.20842599 68.2048664,3.22397089 75.900235,11.7154121 C83.5956035,20.2068532 83.3323391,33.2265797 75.3,41.4 L75.2,41.5 L45.6,71.1 C45.5,71.2 45.4,71.4 45.3,71.5 C43.7534169,72.5842535 41.6545354,72.416343 40.3,71.1 Z"></path>
        </g>
    </g>
</svg>