<svg id="students" xmlns="http://www.w3.org/2000/svg" width="66.13" height="51.84" viewBox="0 0 66.13 51.84">
  <path id="Path_437" data-name="Path 437" d="M15.957,28.968a2.034,2.034,0,0,0-2.308-1.722,6.351,6.351,0,0,1-1.158.081A8.068,8.068,0,0,1,12.467,11.3a6.5,6.5,0,0,1,1.183.091,2.044,2.044,0,0,0,.61-4.042,11.368,11.368,0,0,0-1.722-.132h-.016a12.037,12.037,0,0,0-6.905,21.9l.266.186-.269.181A12.718,12.718,0,0,0,0,40.027v9.318A2.021,2.021,0,0,0,2.018,51.36H12.973a2.019,2.019,0,0,0-.037-4.037h-8.9v-7.3a8.742,8.742,0,0,1,8.729-8.787H14.01a2.021,2.021,0,0,0,2.018-1.977v0A1.985,1.985,0,0,0,15.957,28.968Z" fill="#8c1d40"/>
  <path id="Path_438" data-name="Path 438" d="M60.512,29.482l-.269-.181.265-.187A12.039,12.039,0,0,0,53.585,7.227a12.579,12.579,0,0,0-1.747.132,2.044,2.044,0,0,0,.62,4.04,7.092,7.092,0,0,1,1.134-.091h.017a8.068,8.068,0,0,1,.026,16.024,6.814,6.814,0,0,1-1.181-.079,2.017,2.017,0,0,0-2.3,1.687,2.153,2.153,0,0,0,0,.34,2.027,2.027,0,0,0,2.02,2.037h1.188a8.762,8.762,0,0,1,8.73,8.707v7.3h-8.88a2.02,2.02,0,0,0-1.981,2.059,2.027,2.027,0,0,0,2.059,1.978H64.112a2.021,2.021,0,0,0,2.018-2.019V40.025A12.716,12.716,0,0,0,60.512,29.482Z" fill="#8c1d40"/>
  <path id="Path_439" data-name="Path 439" d="M41.258,25.661l-.3-.173.279-.2a13.968,13.968,0,1,0-16.349,0l.279.2-.3.173A12.808,12.808,0,0,0,18.5,36.671V49.822a2.021,2.021,0,0,0,2.018,2.018H45.6a2.021,2.021,0,0,0,2.019-2.018V36.687A12.807,12.807,0,0,0,41.258,25.661ZM23.135,14a9.945,9.945,0,0,1,9.929-9.929h0a9.929,9.929,0,0,1,0,19.859h0A9.932,9.932,0,0,1,23.135,14ZM43.588,47.8H22.541V36.687a8.757,8.757,0,0,1,8.729-8.73h3.587a8.757,8.757,0,0,1,8.73,8.73V47.8Z" fill="#8c1d40"/>
</svg>
