<svg xmlns="http://www.w3.org/2000/svg" width="77.213" height="63.598" viewBox="0 0 77.213 63.598">
  <g id="Group_290" transform="translate(-358.499 -793.48)">
    <g id="noun_Star_3319354" transform="translate(1242 816.694)">
      <g id="Path_401" transform="translate(-2.758 -4.14)">
        <path id="Path_434" data-name="Path 434" d="M-857.2-3.617a.685.685,0,0,0-.606.369l-5.96,11.424-12.515,2.2a.666.666,0,0,0-.385.195.689.689,0,0,0-.019.975l8.863,9.261-1.788,12.75a.714.714,0,0,0,.058.448.705.705,0,0,0,.614.384.6.6,0,0,0,.289-.073l11.44-5.693,11.381,5.653a.572.572,0,0,0,.349.1.867.867,0,0,0,.113-.007.7.7,0,0,0,.576-.78L-846.6,20.809l8.823-9.24a.739.739,0,0,0,.231-.39.712.712,0,0,0-.558-.8l-12.553-2.2L-856.6-3.208a.694.694,0,0,0-.289-.332.682.682,0,0,0-.316-.077m0-3.915a4.542,4.542,0,0,1,2.041.489c.068.034.135.071.2.109a4.555,4.555,0,0,1,1.82,1.977l5.011,9.6,10.685,1.875c.047.008.095.018.142.028a4.62,4.62,0,0,1,3.571,5.242c-.018.117-.042.234-.071.349a4.653,4.653,0,0,1-1.279,2.235l-7.428,7.779,1.539,10.889c.008.053.014.106.019.16a4.614,4.614,0,0,1-3.813,5.042c-.062.01-.125.018-.187.025a4.761,4.761,0,0,1-.53.03,4.4,4.4,0,0,1-2.2-.579l-9.531-4.734-9.713,4.833a4.442,4.442,0,0,1-2.018.487,4.542,4.542,0,0,1-4-2.416,4.6,4.6,0,0,1-.505-2.809c0-.025.006-.049.01-.074l1.522-10.849-7.534-7.872a4.645,4.645,0,0,1-1.293-3.3,4.652,4.652,0,0,1,1.388-3.23,4.485,4.485,0,0,1,2.44-1.244L-866.3,4.648l5.074-9.726A4.528,4.528,0,0,1-857.2-7.532Z" fill="#8c1d40" fill-rule="evenodd"/>
      </g>
    </g>
    <g id="noun_Star_3319354-2" transform="translate(1287.529 836.665)">
      <g id="Path_401-2" transform="translate(-2.758 -4.14)">
        <path id="Path_435" data-name="Path 435" d="M-865.691-4.043a.442.442,0,0,0-.393.24l-3.87,7.418-8.127,1.43a.436.436,0,0,0-.25.127.448.448,0,0,0-.013.633l5.755,6.014L-873.75,20.1a.467.467,0,0,0,.038.291.459.459,0,0,0,.4.25.4.4,0,0,0,.188-.047l7.428-3.7,7.39,3.671a.368.368,0,0,0,.227.068c.024,0,.048,0,.074,0a.454.454,0,0,0,.374-.507l-1.173-8.3,5.73-6a.474.474,0,0,0,.15-.253.462.462,0,0,0-.362-.519l-8.151-1.43L-865.3-3.775a.449.449,0,0,0-.187-.215.438.438,0,0,0-.208-.053m0-3.915a4.3,4.3,0,0,1,1.93.462c.068.034.135.071.2.109a4.314,4.314,0,0,1,1.714,1.852l2.933,5.62,6.284,1.1c.047.008.095.018.142.028a4.371,4.371,0,0,1,3.375,4.961c-.018.117-.042.234-.071.349a4.393,4.393,0,0,1-1.189,2.089l-4.343,4.548.905,6.405c.007.053.014.106.019.16A4.367,4.367,0,0,1-857.4,24.5c-.062.01-.125.018-.187.025a4.511,4.511,0,0,1-.49.027,4.188,4.188,0,0,1-2.057-.533l-5.558-2.761-5.706,2.839a4.225,4.225,0,0,1-1.912.459,4.3,4.3,0,0,1-3.787-2.288,4.4,4.4,0,0,1-.481-2.645c0-.025.006-.049.01-.074l.9-6.379L-881.1,8.54a4.409,4.409,0,0,1-1.224-3.124,4.413,4.413,0,0,1,1.312-3.058,4.251,4.251,0,0,1,2.3-1.176l6.232-1.1,2.984-5.72A4.286,4.286,0,0,1-865.691-7.958Z" fill="#8c1d40" fill-rule="evenodd"/>
      </g>
    </g>
    <g id="noun_Star_3319354-3" transform="translate(1285.411 804.9)">
      <g id="Path_401-3" transform="translate(-2.758 -4.14)">
        <path id="Path_436" data-name="Path 436" d="M-869.2-3.365a.317.317,0,0,0-.283.173l-2.786,5.341-5.851,1.03a.314.314,0,0,0-.18.091.322.322,0,0,0-.009.456l4.144,4.33L-875,14.017a.335.335,0,0,0,.027.21.33.33,0,0,0,.287.18.285.285,0,0,0,.135-.034l5.349-2.661,5.321,2.643a.264.264,0,0,0,.163.049l.053,0a.326.326,0,0,0,.269-.365l-.845-5.979,4.125-4.32A.342.342,0,0,0-860,3.555a.334.334,0,0,0-.261-.374l-5.869-1.03-2.778-5.323a.322.322,0,0,0-.135-.155.3.3,0,0,0-.148-.038m0-3.915a4.166,4.166,0,0,1,1.872.448c.068.034.135.071.2.109a4.182,4.182,0,0,1,1.658,1.786l1.856,3.556,4,.7c.047.008.095.018.142.028a4.242,4.242,0,0,1,3.274,4.816c-.018.117-.042.234-.071.349A4.258,4.258,0,0,1-857.4,6.525L-860.148,9.4l.576,4.079c.007.053.014.106.019.16a4.237,4.237,0,0,1-3.506,4.627c-.062.01-.124.018-.187.025a4.382,4.382,0,0,1-.47.026,4.076,4.076,0,0,1-1.982-.508l-3.5-1.739-3.629,1.806a4.118,4.118,0,0,1-1.856.444,4.17,4.17,0,0,1-3.675-2.218,4.259,4.259,0,0,1-.47-2.563c0-.025.006-.049.01-.074l.57-4.061-2.818-2.944a4.285,4.285,0,0,1-1.188-3.034A4.286,4.286,0,0,1-880.985.46a4.124,4.124,0,0,1,2.234-1.143l3.96-.7,1.9-3.643A4.161,4.161,0,0,1-869.2-7.28Z" fill="#8c1d40" fill-rule="evenodd"/>
      </g>
    </g>
  </g>
</svg>
