<svg id="communicate" xmlns="http://www.w3.org/2000/svg" width="72.903" height="62.152" viewBox="0 0 72.903 62.152">
  <path id="Path_417" data-name="Path 417" d="M21.137,18.115a2.875,2.875,0,1,0,2.879,2.875A2.971,2.971,0,0,0,21.137,18.115Z" fill="#8c1d40"/>
  <path id="Path_418" data-name="Path 418" d="M40.618,20.615l-.019-.1a2.986,2.986,0,0,0-2.823-2.4,2.875,2.875,0,1,0,2.879,2.875l0-.375Z" fill="#8c1d40"/>
  <path id="Path_419" data-name="Path 419" d="M29.458,18.115a2.875,2.875,0,1,0,2.876,2.875A2.925,2.925,0,0,0,29.458,18.115Z" fill="#8c1d40"/>
  <path id="Path_420" data-name="Path 420" d="M56.878,38.562a6.987,6.987,0,0,0,2.035-4.984V7.073A7.117,7.117,0,0,0,51.838,0H7.073A7.119,7.119,0,0,0,0,7.076v26.5A7.118,7.118,0,0,0,7.075,40.65H8.54v7.575a3.091,3.091,0,0,0,5.444,2.014l8.282-9.589H51.914A6.985,6.985,0,0,0,56.878,38.562ZM21.582,36.3v-.077H21.21a2.167,2.167,0,0,0-1.682.791L12.97,44.643V38.518a2.169,2.169,0,0,0-.636-1.559,2.238,2.238,0,0,0-1.579-.658H7.069a2.521,2.521,0,0,1-1.853-.744,2.627,2.627,0,0,1-.785-1.9V7.149A2.567,2.567,0,0,1,5.181,5.3a2.7,2.7,0,0,1,1.893-.79H51.918a2.519,2.519,0,0,1,1.819.72,2.692,2.692,0,0,1,.82,1.923V33.656a2.591,2.591,0,0,1-.739,1.854,2.641,2.641,0,0,1-1.9.79Z" fill="#8c1d40"/>
  <path id="Path_421" data-name="Path 421" d="M65.837,10.97h-.105a2.217,2.217,0,1,0,.135,4.432h.022a2.61,2.61,0,0,1,2.584,2.645V44.61a2.6,2.6,0,0,1-.785,1.839,2.631,2.631,0,0,1-1.858.744H62.107a2.2,2.2,0,0,0-2.175,2.215v6.131l-6.548-7.618a2.185,2.185,0,0,0-1.691-.8H24.5a2.221,2.221,0,0,0-2.161,2.268,2.246,2.246,0,0,0,2.251,2.164H50.637l.037.043,8.241,9.462a3.054,3.054,0,0,0,2.312,1.089c.068,0,.13.007.191.007a2.458,2.458,0,0,0,.906-.167,2.92,2.92,0,0,0,2.037-2.857V51.62H65.83A7.117,7.117,0,0,0,72.9,44.545v-26.5A7.113,7.113,0,0,0,65.837,10.97Z" fill="#8c1d40"/>
</svg>
