<svg id="passion" xmlns="http://www.w3.org/2000/svg" width="84.211" height="84.213" viewBox="0 0 84.211 84.213">
  <path id="Path_422" data-name="Path 422" d="M57.023,29.377c-.048-.044-.1-.087-.147-.13a13.484,13.484,0,0,0-8.2-3.045h0a10.909,10.909,0,0,0-5.941,1.785l-.068.044-.068-.044a10.911,10.911,0,0,0-5.94-1.785,13.455,13.455,0,0,0-8.2,3.046c-.049.042-.1.084-.147.128-5.927,5.427-3.074,12.674-.738,15.748C29,47.416,32.27,50.977,38.513,57.04c.308.3.534.519.65.634l.062.062a4.872,4.872,0,0,0,6.894,0l.4-.391.041-.039c6.287-6.1,9.738-9.848,11.19-12.168.24-.315.425-.6.573-.838a15.323,15.323,0,0,0,1.361-2.675A10.639,10.639,0,0,0,57.023,29.377ZM55.257,39.9a9.655,9.655,0,0,1-1.427,2.517l.008.005c-1.028,1.8-4.592,5.66-10.591,11.475-.245.237-.415.4-.489.477l-.088.088-.15-.149c-.125-.126-.371-.364-.705-.689-2.42-2.352-8.85-8.6-10.314-11.2a10.147,10.147,0,0,1-1.656-3.215,5.862,5.862,0,0,1,1.68-6.33,8.97,8.97,0,0,1,5.134-1.928h0c2.341,0,4.362,1.268,6.009,3.768,1.646-2.5,3.667-3.769,6.008-3.769h0a8.974,8.974,0,0,1,5.131,1.925A5.992,5.992,0,0,1,55.257,39.9Z" fill="#8c1d40"/>
  <path id="Path_423" data-name="Path 423" d="M42.585,67.241h0a2.4,2.4,0,0,0-2.4,2.4V81.815a2.4,2.4,0,1,0,4.795,0V69.637A2.4,2.4,0,0,0,42.585,67.241Z" fill="#8c1d40"/>
  <path id="Path_424" data-name="Path 424" d="M42.584,16.973a2.4,2.4,0,0,0,2.4-2.4V2.4a2.4,2.4,0,0,0-2.4-2.4h0a2.4,2.4,0,0,0-2.4,2.4V14.576A2.4,2.4,0,0,0,42.584,16.973Z" fill="#8c1d40"/>
  <path id="Path_425" data-name="Path 425" d="M16.971,40.584a2.4,2.4,0,0,0-2.4-2.4H2.4a2.4,2.4,0,0,0,0,4.8H14.574A2.4,2.4,0,0,0,16.971,40.584Z" fill="#8c1d40"/>
  <path id="Path_426" data-name="Path 426" d="M83.51,38.888a2.382,2.382,0,0,0-1.695-.7H69.637a2.4,2.4,0,0,0,0,4.795H81.815a2.4,2.4,0,0,0,1.7-4.092Z" fill="#8c1d40"/>
  <path id="Path_427" data-name="Path 427" d="M23.142,55.541a2.386,2.386,0,0,0-1.695.7l-8.612,8.612a2.352,2.352,0,0,0,1.63,4.049h.021a2.688,2.688,0,0,0,1.745-.665l8.606-8.606a2.4,2.4,0,0,0-1.7-4.091Z" fill="#8c1d40"/>
  <path id="Path_428" data-name="Path 428" d="M62.046,21.322h.02a2.884,2.884,0,0,0,1.749-.667l8.6-8.6a2.4,2.4,0,0,0-3.39-3.39l-8.612,8.612a2.352,2.352,0,0,0,1.629,4.049Z" fill="#8c1d40"/>
  <path id="Path_429" data-name="Path 429" d="M63.8,56.242a2.4,2.4,0,0,0-3.39,3.391l8.612,8.61a2.459,2.459,0,0,0,1.652.66,2.684,2.684,0,0,0,1.744-.665,2.441,2.441,0,0,0-.008-3.386Z" fill="#8c1d40"/>
  <path id="Path_430" data-name="Path 430" d="M21.53,20.663a2.456,2.456,0,0,0,1.649.659,3.054,3.054,0,0,0,1.751-.668,2.441,2.441,0,0,0-.012-3.383l-8.61-8.61a2.4,2.4,0,0,0-3.39,3.39Z" fill="#8c1d40"/>
</svg>
