<svg xmlns="http://www.w3.org/2000/svg" width="60.242" height="64.109" viewBox="0 0 60.242 64.109">
  <g id="progress" transform="translate(-0.001 0)">
    <path id="Path_431" data-name="Path 431" d="M1.931,35.195a1.978,1.978,0,0,0,1.434-.536c.042-.04.083-.081.124-.126L22.3,15.721l.177.178L33.409,26.905a1.982,1.982,0,0,0,2.792,0L56.306,6.8v8.54a1.968,1.968,0,0,0,3.935,0V1.969A1.873,1.873,0,0,0,58.47,0a.827.827,0,0,0-.107,0H45.041a1.967,1.967,0,1,0,0,3.934h8.541l-.213.213L34.835,22.687l-.088-.088L23.653,11.506a1.987,1.987,0,0,0-2.81-.047L20.8,11.5.649,31.722A2.008,2.008,0,0,0,0,33.127a2,2,0,0,0,1.929,2.068Z" fill="#8c1d40"/>
    <path id="Path_432" data-name="Path 432" d="M58.47,27.21c-.037,0-.076,0-.112,0H46.76a1.956,1.956,0,0,0-1.967,1.949V60.109H38.036v-21a1.956,1.956,0,0,0-1.948-1.967H24.329a1.983,1.983,0,0,0-1.369.567,1.943,1.943,0,0,0-.579,1.381v21.02H15.625V45.761a1.958,1.958,0,0,0-1.949-1.967H2.008A1.956,1.956,0,0,0,.041,45.743v16.4a1.96,1.96,0,0,0,1.947,1.97H58.273a1.966,1.966,0,0,0,1.968-1.949V29.176A1.874,1.874,0,0,0,58.47,27.21Zm-46.848,32.9H3.974V47.727h7.648Zm22.411.064H26.385V41.149h7.648Zm22.273-.064H48.658V31.142h7.648Z" fill="#8c1d40"/>
  </g>
</svg>
