<?xml version="1.0" encoding="UTF-8"?>
<svg width="100px" height="100px" viewBox="0 0 100 100" version="1.1" xmlns="http://www.w3.org/2000/svg" xmlns:xlink="http://www.w3.org/1999/xlink">
    <!-- Generator: Sketch 64 (93537) - https://sketch.com -->
    <title>icon-first-year-experience</title>
    <desc>Created with Sketch.</desc>
    <g id="icon-first-year-experience" stroke="none" stroke-width="1" fill="none" fill-rule="evenodd">
        <g transform="translate(12.000000, 11.000000)" fill="#FFE393" fill-rule="nonzero" id="Path_368">
            <path d="M21.137,-3.16285833e-06 C20.4645139,-0.00106196129 19.8192073,0.265338027 19.3433122,0.740482825 C18.8674171,1.21562762 18.5999992,1.86051301 18.6,2.533 L18.6,12.27 C15.1102752,13.5038953 13.0170022,17.0724228 13.6429659,20.7205519 C14.2689296,24.3686811 17.4320575,27.0352898 21.1335,27.0352898 C24.8349425,27.0352898 27.9980704,24.3686811 28.6240341,20.7205519 C29.2499978,17.0724228 27.1567248,13.5038953 23.667,12.27 L23.667,2.533 C23.667001,1.13523346 22.5347656,0.00165546767 21.137,-3.16285833e-06 Z M54.915,-1.97680201e-07 C53.5160627,-1.97680201e-07 52.382,1.13406273 52.382,2.533 L52.382,12.27 C48.8922752,13.5038953 46.7990022,17.0724228 47.4249659,20.7205519 C48.0509296,24.3686811 51.2140575,27.0352898 54.9155,27.0352898 C58.6169425,27.0352898 61.7800704,24.3686811 62.4060341,20.7205519 C63.0319978,17.0724228 60.9387248,13.5038953 57.449,12.27 L57.449,2.533 C57.4490001,1.86103333 57.1819939,1.21660328 56.706748,0.741544877 C56.231502,0.266486474 55.5869666,-1.97680201e-07 54.915,-1.97680201e-07 Z M9.315,5.067 C4.17866484,5.08673638 0.0197363764,9.24566484 0,14.382 L0,68.374 C0.0202804797,73.5101085 4.17889146,77.6687195 9.315,77.689 L66.685,77.689 C71.8211085,77.6687195 75.9797195,73.5101085 76,68.374 L76,14.382 C75.9797195,9.24589146 71.8211085,5.08728048 66.685,5.067 L61.645,5.067 C60.2503854,5.09881933 59.1192266,6.20636675 59.058,7.6 C59.1192266,8.99363325 60.2503854,10.1011807 61.645,10.133 L66.685,10.133 C67.8163184,10.1175059 68.9058396,10.5600845 69.7058775,11.3601225 C70.5059155,12.1601604 70.9484941,13.2496816 70.933,14.381 L70.933,28.711 L5.067,28.711 L5.067,14.382 C5.05150588,13.2506816 5.49408454,12.1611604 6.29412248,11.3611225 C7.09416042,10.5610845 8.18368159,10.1185059 9.315,10.134 L14.355,10.134 C15.7443005,10.1004278 16.8666997,8.98986648 16.915,7.601 C16.8666997,6.21213352 15.7443005,5.10157216 14.355,5.068 L9.315,5.067 Z M27.867,5.067 C26.9618676,5.067 26.1254908,5.54988235 25.6729246,6.33374998 C25.2203584,7.11761762 25.2203584,8.08338238 25.6729246,8.86725002 C26.1254908,9.65111765 26.9618676,10.134 27.867,10.134 L48.133,10.134 C49.5322134,10.134 50.6665,8.99971341 50.6665,7.6005 C50.6665,6.20128659 49.5322134,5.067 48.133,5.067 L27.867,5.067 Z M21.137,16.889 C22.5354144,16.8912083 23.6674702,18.026247 23.666,19.4246625 C23.664527,20.8230779 22.5300848,21.9557314 21.1316688,21.9549968 C19.7332528,21.9542615 18.6000017,20.8204162 18.6,19.422 C18.5910117,18.7467949 18.8555458,18.0966693 19.3334068,17.6195618 C19.8112678,17.1424543 20.4618099,16.8789463 21.137,16.889 L21.137,16.889 Z M54.915,16.889 C56.3139373,16.889 57.448,18.0230627 57.448,19.422 C57.448,20.8209373 56.3139373,21.955 54.915,21.955 C53.5160627,21.955 52.382,20.8209373 52.382,19.422 C52.3730362,18.7474986 52.6370257,18.0979989 53.1140123,17.6210123 C53.5909989,17.1440257 54.2404986,16.8800362 54.915,16.889 L54.915,16.889 Z M5.06660645,33.778 L70.9333935,33.778 L70.9333935,68.378 C70.9484941,69.5093184 70.5059155,70.5988396 69.7058775,71.3988775 C68.9058396,72.1989155 67.8163184,72.6414941 66.685,72.626 L9.315,72.626 C8.18368159,72.6414941 7.09416042,72.1989155 6.29412248,71.3988775 C5.49408454,70.5988396 5.05150588,69.5093184 5.06660645,68.378 L5.06660645,33.778 Z"></path>
        </g>
    </g>
</svg>