<svg width="1600" height="350" viewBox="0 0 1600 350" preserveAspectRatio="xMidYMid slice" xmlns="http://www.w3.org/2000/svg">
  <g fill="none" fill-rule="evenodd">
    <path fill="#F1F1F1" fill-rule="nonzero" d="M.342 0h1600v350H.342z"/>
    <path d="M-174.007 630.767c34.857-19.173 67.538-44.893 103.487-44.893 27.778 3.675 47.386 47.766 73.531 62.464 50.655 22.047 94.774 11.023 145.429 36.744 31.047 11.023 60.459 7.349 91.506-7.349a649.723 649.723 0 0137.936-13.8 599.202 599.202 0 0119-5.912c139.152-13.357 276.411-86.843 418.572-31.728 65.361 22.046 151.965 187.391 210.79 40.418 8.17-18.372 24.51-22.047 37.853-22.388 5.147-1.344 10.4-2.62 15.646-3.877 44.544-10.479 88.662-28.851 132.782-43.548 93.139-33.069 187.913 7.349 269.615 117.579 9.8 11.023 21.242 25.72 31.046 14.7 26.145-25.72 53.923-55.115 82.314-27.554a25.923 25.923 0 0015.728-5.515c93.139-62.464 212.424-132.276 294.743 8.954m-1979.758-95.636c41.181-12.526 80.4-56.618 122.882-34.572 106.212 58.789 215.692 102.882 325.172 66.138 6.154-2.33 12.31-4.54 18.468-6.628 151.471-19.092 305.07-99.927 455.4-19.092 44.119 25.72 84.97 110.23 129.088 84.51 32.68-22.046 57.191-84.51 94.349-79.476 5.933-.985 11.869-1.936 17.807-2.855 39.809-9.528 79.025-16.876 118.242-31.574 94.773-33.069 189.547 0 274.517 95.533 9.8 11.023 21.242 18.371 32.681 7.348 21.242-18.371 42.485-11.023 66.061-7.98a56.236 56.236 0 0014.232-2.318c23.824-6.927 47.57-28.741 70.038-44.817 78.434-51.441 169.939-44.092 245.688 26.867m-1979.956-73.032c43.047-12.624 82.264-49.368 126.382-31 91.506 36.743 189.547 113.905 281.053 58.79a247.456 247.456 0 0152.99-25.2 242.244 242.244 0 0117.832-5.236c99.117-21.006 200.427 8.388 300.1-2.635 32.68-3.674 67-14.7 99.676-11.023 45.753 7.349 84.969 55.115 125.82 91.858 29.412 25.721 52.289-7.349 76.8-47.766 13.072-22.046 32.681-14.7 48.74-14.676 6.548 0 13.1-.007 19.715-.081 52.464-7.29 101.485-25.661 153.773-36.684 83.335-14.7 163.4 18.371 245.1 66.138 32.68 22.046 65.361 22.046 98.373 24.427a33.063 33.063 0 0016.009-6.055c101.31-73.487 210.79-66.138 312.644-30.769m-1964.5-52.8c48.872-22.983 96.259-37.68 148.548-11.96 71.9 36.743 155.233 128.6 220.594 7.349 4.9-7.349 11.438-11.023 16.34-11.023 24.328 2.447 48.5 6.169 72.574 10.35 6.02 1.047 12.049 2.119 18.089 3.215 126.663 30.526 252.484 19.5 379.938-6.217 11.438-3.674 22.876 0 34.315 3.674 44.119 18.372 80.067 84.51 124.186 66.138 31.047-14.7 58.825-62.464 93.545-49.968h38.611c6.412 0 12.819 0 19.408-.158 109.882-27.036 217.728-34.384 330.476-1.315 8.17 3.674 14.706-7.349 22.877-3.674 35.948 22.046 66.995 62.464 102.126 63.383 4.607.46 9.254-.292 13.481-2.182a43.34 43.34 0 0013.48-9.76c96.408-88.184 202.62-44.092 304.629-40.252M-144.551 542.29c62.591-37.249 123.051-15.2 186.778 14.191 47.387 18.372 116.016 80.836 145.429-40.417 3.268-7.349 8.17-11.023 13.072-11.023 31.659 4.592 62.68 15.285 93.511 27.146 6.167 2.37 12.327 4.774 18.481 7.212 79.19 31.78 157.624 53.826 239.325 17.082 96.408-44.092 184.646 3.674 277.785 22.046 31.047 7.348 67-29.395 102.605-26.474h78.558c91.727-21.292 183.232-21.292 274.738-21.292 13.072 0 24.51-3.674 37.582-11.023 13.072-3.674 24.51 7.349 35.948 18.372 34.315 29.395 67 55.115 102.944 73.487 4.9 1.837 9.4.919 13.685-1.378 4.285-2.297 8.375-5.971 12.46-9.645 88.238-102.881 197.718-33.069 294.64-47.406m-1913.607-32.772c22.52-8.006 45.4-22.7 69.907-22.7 83.336 3.674 186.279 124.927 253.275-33.07 3.268-3.674 6.944-7.349 10.826-9.645 3.882-2.296 7.966-3.215 12.051-1.378 17.157 14.958 34.538 29.244 52.114 42.24a570.817 570.817 0 0017.641 12.544 233.912 233.912 0 0016.688 10.8 228.702 228.702 0 0016.785 8.954c135.34 57.735 272.6-19.426 408.223-12.077 29.413 0 57.191 22.046 86.6 18.371 35.949-7.349 71.9-7.349 107.379-6.651h104.675c86.975-22.743 176.846 10.325 263.45-41.115 16.34-11.023 34.315 0 50.655 11.023 40.851 25.72 75.166 106.556 119.284 91.859 5.354-5.717 10.764-10.958 16.229-15.723 92.854-81.25 200.312-32.841 298.112-46.359m-1892.243-29.373c84.4-48.171 169.367 25.316 255.971 3.27 14.706-3.674 27.779-29.395 40.124-48.583 4.085-6.125 8.08-12.353 11.961-18.015 11.642-16.994 22.264-28.936 31.251-17.913 31.864 40.786 65.2 69 99.385 87.534a240.65 240.65 0 0017.2 8.462c14.138 6.886 28.844 14.234 43.55 17.909 135.625 14.7 269.615-25.72 403.606-36.743 34.314-3.674 70.263-14.7 106.168 2.112 5.02 1.61 10.038 3.057 15.064 4.237a108.668 108.668 0 0030.364 3.133c4.927.011 9.85.015 14.77.011h105.145c74.9 8.878 145.159-27.866 220.325-46.238 52.289-18.372 88.237 77.161 137.258 99.207 11.438 7.349 24.511 3.674 35.949 3.674a44.046 44.046 0 0012.973-6.577c21.523-15.021 42.856-46.466 68.729-36.1 3.812.728 7.625 1.444 11.438 1.988 3.79.56 7.609.895 11.438 1 70.263-15.428 142.161-22.777 213.122-17.4m-1883.23-25.309c78.563-42.53 158.63 1.562 238.7-9.461 16.34 0 32.68-11.024 47.514-27.558a138.965 138.965 0 0014.131-15.616c9.252-11.839 18.149-26.639 26.592-45.011 8.17-18.371 24.51-14.7 31.047 7.349 11.438 33.069 19.608 66.138 37.583 77.161 22.06 9.186 42.894 20.209 63.727 31.232a4090.293 4090.293 0 0015.651 8.237c33.37 19.32 64.417 41.366 98.731 22.995 104.578-55.115 205.888-36.743 308.832-51.441 21.242-3.674 37.582-36.744 58.869-41.631a34.964 34.964 0 0112.211-1.715 32.978 32.978 0 0112.256 2.928c34.315 18.371 65.361 47.767 101.03 43.908 4.894.1 9.8.107 14.711.107h43.973c21.738-1.441 43.406.636 65.141 2 5.433.342 10.871.64 16.329.823 57.843 8.279 110.132-32.14 167.323-57.86 52.289-22.046 91.505 58.79 133.99 102.882 16.341 14.7 34.315 14.7 52.289 14.7a47.869 47.869 0 0012.267-6.063c20.486-13.467 41.272-40.682 63.867-35.571 5.03-.106 10.047-.132 15.058-.206 25.053-.359 49.948-1.793 75.479-13.275a191.847 191.847 0 0115.639-4.769 205.303 205.303 0 0115.567-3.411c40.69-6.518 83.175-2.843 123.462-.246m-1890.1-17.262c86.692-44.125 176.564-11.057 264.8-25.754 4.9 0 11.438 3.674 16.523-5.692a77.8 77.8 0 0010.438-11.3c10.213-13.32 19.608-32.609 26.961-56.493 11.438-36.743 44.119-18.372 58.825 14.7 13.072 25.72 17.974 62.464 35.948 73.487 29.413 13.779 56.987 19.291 84.1 33.584a166.087 166.087 0 0113.526 7.959 93.188 93.188 0 0012.75 11.063c18.711 13.533 36.686 13.533 55.425 3.509a355.456 355.456 0 0116.992-5.339c28.247-8.121 56.1-12.493 83.782-15.429a909.96 909.96 0 0116.594-1.6c46.9-.676 94.292-4.35 143.313-19.048 31.047-11.023 60.459-44.092 91.182-49.328a137.3 137.3 0 0117.889-3.95c35.949-5.512 72.306 1.837 109.889 27.557 50.382 33.679 105.3 26.536 159.091 16.84 5.378-.97 10.745-1.965 16.1-2.947 37.238-6.544 74.821-21.241 112.485-38.688 5.305-1.951 10.594-3.736 15.861-5.276a161.014 161.014 0 0115.726-3.8 111.617 111.617 0 0117.775-1.922c11.015-.952 24.087 2.723 35.525 6.4a61.062 61.062 0 0114.34 7.948 114.842 114.842 0 0113.732 11.985c29.118 31.508 56.9 86.623 91.581 91.484 4.81.614 9.694.21 14.337-1.187 22.877-7.349 47.387-33.069 72.892-32.437 5.86-.6 11.712-1.279 17.569-2.061 29.281-3.909 58.643-10.512 89.282-24.291 50.655-18.372 99.676-14.7 148.638-9.777m-1906.627-3.939c88.011-52.422 177.882-34.05 268.358-30.1a47.122 47.122 0 0016.348-6.243c15.319-9.645 26.349-30.772 22.264-74.864 31.047-11.023 65.361-11.023 93.14 25.72 11.438 14.7 14.706 55.115 29.412 66.138 37.174 25.72 75.6 20.5 113.087 40.94a117.954 117.954 0 0116.005 10.5c35.946 33.069 71.894-14.7 108.568-12.794a255.075 255.075 0 0117.126-1.933c9.974-.8 19.92-1.058 29.859-1.04 4.967.011 9.933.092 14.9.214 58.309 4.531 117.134 8.2 167.782-65.826 5.8-4.762 11.648-9.127 17.51-13.036 35.177-23.457 71.06-30.512 103.414-8.466 111.114 77.161 228.764 25.72 339.878 29.395 35.458 0 86.13-36.009 122.869-12.243a59.315 59.315 0 0114.891 14.15c3.544 10.097 7.221 19.308 11.031 27.631 14.612 29.251 30.952 51.3 51.057 60.925a52.323 52.323 0 0014.194 3.928c19.241 2.465 39.682-5.964 60.681-22.947 5.337-1.2 10.706-2.153 16.055-3.112 37.449-6.712 73.937-14.686 112.826-35.263 49.021-25.72 99.677-22.046 148.134-18.42m-1922.884 16.62a172.448 172.448 0 0134.883-26.789 151.31 151.31 0 0117.778-8.738c48.843-21.462 97.863-6.764 147.166-8.906 6.221.345 12.441.614 18.659.735 24.872.488 49.689-1.348 74.2-9.616 14.706-7.349 6.536-40.418 6.536-66.138 50.655 7.349 111.114-14.7 148.7 84.51 3.268 14.7 13.072 14.7 21.242 18.372 45.753 11.023 89.872 7.349 135.624 33.069 31.047 18.372 60.459-3.674 89.872-3.674 20.7-2.451 42.121.816 63.727 2.995 5.4.544 10.814 1.017 16.244 1.322 37.679 3.032 78.53-4.317 111.211-55.758a217.827 217.827 0 0115.255-20.286c47.3-55.589 107.3-63.856 151.416-27.48 93.14 73.487 186.28 44.092 279.419 33.069 67-7.349 133.99-3.674 200.986-3.674 8.987-1.837 9.4 13.779 9.227 32.632-1.057 51.878 25.087 81.273 44.7 73.924 19.613-7.349 39.217-29.4 59.066-19.456 5.2.878 10.38 2 15.486 2.921 15.319 2.756 30.025 3.674 43.1-9.186 70.263-62.464 143.795-66.138 217.834-73.178m-1936.724 41.7c27.54-32.651 56.526-47.557 86.308-53.749a174.826 174.826 0 0117.969-2.741c31.238-.217 60.65-.217 91.556 2.528 6.151.349 12.3.617 18.448.724 24.586.434 49.1-1.631 73.2-10.817 13.072-3.674 0-51.44 4.9-51.44 49.021-33.069 98.042 3.674 148.7 22.046 14.706 3.674 21.243 47.766 37.583 51.441 62.093 22.046 119.284 18.371 179.743 36.743 27.233 7.654 55.6 23.6 83.569 33.488 5.593 1.981 11.17 3.715 16.721 5.093 38.6 9.186 79.453-1.837 110.3-61.593a302.352 302.352 0 0116.648-20.268c67.885-75.651 148.119-86.9 213.948-52.253 45.753 25.72 91.506 73.487 142.161 51.441 80.068-33.069 155.233-7.349 232.032-7.349 32.681 0 65.361-36.743 98.042-18.372 8.17 5.511 7.761 18.372 5.719 33.988-1.021 7.808-2.452 16.3-3.406 24.938 4.222 95.4 58.146 21.91 85.72 46.253 5.462.805 10.913 1.521 16.361 1.914 16.344 1.187 32.659-.536 49.2-11.56 17.974-11.023 29.412-51.44 49.021-62.463 40.851-18.372 80.068-11.023 119.284-33.069 13.072-7.349 26.144-3.674 39.29.9m-1949.078 66.192c79.675-107.526 180.985-56.085 269.223-63.434 4.9 0 11.439-3.674 16.341-11.023 6.536-18.372-4.9-55.115 6.536-58.789 55.557-3.674 109.48 29.394 165.037 29.394 16.34 3.674 29.413 33.069 45.753 36.743 62.093 18.372 124.186 7.349 186.279 44.092 31.047 20.209 67 41.336 102.944 44.552 5.97.55 11.98.56 17.952.026 24.533-.485 47.41-15.183 69.126-40.2a199.1 199.1 0 0015.866-22.744c67-110.23 169.939-132.277 250.007-73.487 34.315 25.72 63.727 69.812 102.943 55.115 68.63-29.395 130.723-25.72 199.352-3.674 42.485 14.7 80.067-7.349 122.552-25.72 16.34-11.023 44.119-22.046 49.021 22.046 1.634 11.023-2.043 22.965-5.719 33.528-3.676 10.563-7.353 19.75-5.719 25.261 16.34 33.069 39.217 44.092 59.857 43.68 6.06.274 12.133.054 18.157-.658 18.316-2.09 36.776-8.116 52.708-13.628 17.974-7.349 24.51-58.789 40.85-69.812 35.949-33.069 76.8-18.372 112.748-47.766 16.34-14.7 34.315-7.349 51.427-.221m-1959.607 84.44c82.968-117.292 184.278-47.479 277.418-76.874 11.438-3.674 1.634-33.069 6.536-47.766 3.268-7.349 6.536-14.7 9.8-14.7 98.042 22.046 192.815 44.092 290.857 47.766 24.51 0 49.021 11.023 75.165 18.372 26.144 7.349 49.021 44.092 71.9 58.789 24.511 18.372 56.374 44.092 86.4 48.226 5.893.867 11.89.751 17.745-.342 18.407-.118 33.114-22.164 46.08-46a229.4 229.4 0 0011.545-34.954c16.34-66.138 58.825-47.766 89.871-55.115 50.655-14.7 98.042-36.743 147.063-47.767 21.242 0 44.119-3.674 60.459 29.4 45.753 84.51 101.31 36.743 151.965 22.046 11.438-3.674 21.242-3.674 32.68 3.674 76.8 40.417 148.7 40.417 223.862-3.674 19.608-14.7 42.485-7.349 57.191 25.72 13.072 29.395-14.706 55.115-9.8 62.464 26.145 55.115 80.067 73.487 112.748 22.046 16.34-25.72 21.243-77.161 42.485-80.836 37.583-14.7 70.263-29.395 107.846-47.766 14.706-3.674 27.778 3.674 42.769 5.217M-212.13 389.69c82.787-97.763 179.194-57.345 270.7-75.717 3.268 0 6.536-7.349 8.17-14.7 3.268-47.767 22.876-55.115 39.217-47.767 96.408 66.138 192.815 14.7 289.223 25.721 58.825 11.023 117.65 55.115 174.841 121.253 14.706 18.372 34.314 34.906 52.493 39.04a34.948 34.948 0 0013.27.61c7.768-2.906 15.938-6.581 22.551-16.693a78.805 78.805 0 008.093-19.283c24.51-88.184 63.727-95.533 101.31-106.556 50.655-14.7 96.408-25.72 147.063-47.767 45.753-14.7 88.237 3.674 129.088 55.115 9.8 14.7 24.51 7.349 37.583 7.349 24.51-3.674 47.387-36.743 71.9-25.72 84.97 36.743 163.4 62.464 245.1 3.674 24.51-14.7 49.021-3.674 71.9 29.394 16.34 22.046 17.974 58.789 4.9 88.184 42.485 58.789 80.068 3.674 114.382-62.464 35.949-77.161 102.944-80.836 158.836-70.639m-1972.211 88.611c87.841-62.059 180.98-25.316 267.584-84.105 14.706-7.349 32.681-58.79 55.557-40.418 88.238 66.138 176.475 29.395 266.347 7.349 89.872-18.372 169.939 102.882 253.275 169.02 29.413 22.046 44.119-25.72 62.093-77.161 22.876-62.464 65.361-47.766 99.676-58.789 55.557-14.7 107.846-36.744 161.769-47.767 40.851-7.349 80.067 22.046 119.284 47.767 19.608 14.7 44.119-22.047 58.825-18.373 99.676 22.047 189.548 55.116 292.491 11.024 35.949-14.7 84.969 22.046 93.14 121.253 3.268 47.766 40.851 40.418 49.021 3.674 11.438-51.441 21.242-113.9 52.288-113.9 29.413 0 57.191-18.372 86.6-29.4 16.34-3.674 32.681 0 49.555-.231m-1972.106 73.648c85.906-10.953 170.876-14.627 254.211-62.394 21.242-14.7 40.85-66.138 68.629-47.766 50.655 29.395 99.676 69.813 150.331 40.418 137.258-91.859 261.445 22.047 385.631 132.277 17.974 18.371 27.779-40.418 37.583-51.441 122.552-121.254 266.347-143.3 403.605-88.185 13.072 3.674 13.072-40.417 22.877-36.743 52.289 3.674 98.042 66.139 150.33 69.813 94.774 14.7 217.326-135.951 284.321 106.556 1.635 11.023 13.073 14.7 14.707 3.674 26.145-194.74 129.088-132.277 197.118-159.077m-1961.89 53.146c78.453 25.1 165.057 14.073 236.954-55.74 16.34-14.7 37.583-47.766 58.825-40.418 47.387 14.7 91.506 58.789 140.527 51.441 83.336-11.023 169.939-84.51 251.641-14.7 47.387 36.743 91.506 95.533 143.795 99.208 11.438 3.674 24.51 18.372 35.949 7.349 122.552-124.928 267.981-102.882 401.971-135.951 4.9-3.674 14.706-29.395 26.144-22.046 125.821 113.905 253.275 40.418 382.363 62.464 27.778 7.349 47.387 58.79 70.263 102.882 3.268 7.349 9.8 7.349 9.8 3.674 32.681-176.369 137.258-91.859 202.963-129.183m-1949.489 32.124c61.845 60.314 133.742 27.245 194.2-20.521 27.779-22.046 50.655-73.487 81.7-55.115 109.48 62.464 214.058 33.069 323.538 7.349 50.655-11.023 98.042 40.418 142.161 88.184 9.8 7.349 21.242 22.047 32.681 18.372 26.144-3.674 50.655-14.7 76.8-11.023 75.166 14.7 150.331-51.441 227.13-66.139 21.242-3.674 42.485-14.7 65.361-22.046 24.51-7.349 50.655 7.349 73.531-14.7 4.9-3.674 9.8-18.372 16.34-22.046 65.361-11.023 124.186 73.487 189.548 77.161 104.578 3.674 217.326-73.487 313.734 51.441 55.557-113.905 143.795-44.093 214.367-80.48m-1940.88 12.791c64.7 75.037 141.5 38.293 203.6-42.542 17.974-22.046 39.217-25.72 60.459-14.7 127.454 69.812 250.007 0 375.827 18.372 42.485 3.674 83.336 99.207 122.552 69.812 26.144-22.046 58.825-18.372 84.97-7.349 106.212 47.767 205.887-36.743 313.734-84.51 21.242-7.349 44.119-33.069 67-18.371 140.526 80.835 277.785 55.115 418.312 55.115 19.608 3.674 39.216 33.069 57.191 25.72 81.7-22.046 161.769-18.372 241.32-32.367" stroke="#A5A5A5" stroke-dasharray="0,10" stroke-linecap="round" stroke-width="3"/>
    <g transform="translate(182.342 -47)" fill="#FFC627" fill-rule="nonzero">
      <circle cx="406.5" cy="66.5" r="66.5"/>
      <circle cx="1076" cy="402" r="216"/>
      <circle cx="29.5" cy="177.5" r="29.5"/>
    </g>
  </g>
</svg>
