<svg width="1600" height="694" viewBox="0 0 1600 694" preserveAspectRatio="xMidYMax slice" xmlns="http://www.w3.org/2000/svg">
  <g fill="none" fill-rule="evenodd">
    <path fill="#8C1D40" fill-rule="nonzero" d="M0 0h1600v694H0z"/>
    <path d="M-119.509 997.105c33.445-21.574 64.26-49.53 100.138-52.047 27.98 1.723 50.634 44.354 77.756 57.192 52.097 18.457 95.356 4.367 147.71 26.49 31.757 8.828 60.853 3.103 90.809-13.74a650.017 650.017 0 0136.894-16.427 599.474 599.474 0 0118.548-7.23c137.939-23.071 269.78-106.018 415.514-60.965 66.773 17.427 164.778 176.379 213.198 25.582 6.867-18.907 22.917-23.719 36.21-24.993 5.042-1.702 10.196-3.343 15.343-4.964 43.721-13.577 86.465-35 129.468-52.756 90.638-39.523 188.052-5.82 277.306 98.47 10.552 10.316 23 24.182 32.013 12.498 24.293-27.499 49.957-58.78 80.221-33.26a25.935 25.935 0 0015.31-6.606c88.58-68.859 202.74-146.88 294.78-11.696m-1982.492 43.139c40.222-15.384 76.276-62.133 120.216-43.105 110.115 51.237 222.462 87.578 329.151 43.244a561.923 561.923 0 0117.967-7.908c149.832-29.657 297.465-121.082 453.153-50.932 45.831 22.58 92.516 104.062 134.746 75.305 31.071-24.29 51.16-88.344 88.597-85.921 5.852-1.398 11.71-2.763 17.571-4.096 39.063-12.296 77.686-22.374 115.796-39.788 92.268-39.637 189.167-13.268 280.655 76.126 10.552 10.315 22.485 16.847 33.13 5.046 19.913-19.822 41.628-13.975 65.37-12.589a56.261 56.261 0 0014.041-3.31c23.292-8.58 45.463-32.013 66.761-49.63 74.676-56.828 166.513-55.899 247.077 9.616M-117.66 953.56c42.077-15.611 78.644-55.027 123.96-39.784 93.894 30.264 197.14 100.409 284.605 38.999a247.568 247.568 0 0151.12-28.86 242.353 242.353 0 0117.43-6.473c97.449-27.902 200.614-5.659 299.316-23.637 32.357-5.954 65.837-19.36 98.705-17.978 46.176 4.132 88.657 49.057 131.998 82.867 31.154 23.61 51.67-10.995 73.303-53.047 11.503-22.916 31.587-16.958 47.615-18.058 6.535-.458 13.073-.924 19.67-1.46 51.849-10.949 99.486-32.714 150.898-47.376 82.139-20.504 164.359 6.897 249.239 48.85 34.158 19.713 66.774 17.426 99.886 17.491a33.078 33.078 0 0015.553-7.163c95.964-80.432 205.74-80.761 309.865-52.593m-1964.267 84.82c47.166-26.357 93.43-44.342 147.414-22.334 74.328 31.637 163.924 117.477 220.667-8.107 4.376-7.677 10.644-11.802 15.536-12.145 24.45.74 48.835 2.762 73.153 5.25 6.08.623 12.173 1.27 18.278 1.942 128.547 21.598 253.344 1.787 378.743-32.8 11.158-4.468 22.83-1.602 34.504 1.264 45.316 15.247 85.822 78.736 128.567 57.313 29.956-16.844 54.335-66.457 89.86-56.416l38.534-2.703c6.399-.45 12.793-.898 19.358-1.516 107.77-34.674 214.886-49.557 329.723-24.446 8.41 3.095 14.162-8.364 22.574-5.268 37.42 19.485 71.233 57.65 106.359 56.107 4.63.137 9.215-.94 13.3-3.121a43.36 43.36 0 0012.77-10.684c90.043-94.756 199.129-58.187 301.203-61.496M-96.305 906.743c59.858-41.555 121.74-23.783 187.398 1.089 48.578 15.018 121.442 72.553 142.309-50.517 2.747-7.563 7.382-11.572 12.274-11.916 31.917 2.367 63.624 10.867 95.224 20.546 6.32 1.934 12.636 3.902 18.949 5.904 81.256 26.173 161.076 42.685 240.042.295 93.129-50.752 184.534-9.258 278.773 2.557 31.499 5.16 64.808-34.026 100.546-33.603l78.401-5.5c90.053-27.67 181.375-34.075 272.698-40.48 13.046-.915 24.204-5.383 36.735-13.632 12.79-4.582 24.976 5.619 37.163 15.819 36.304 26.934 70.724 50.315 107.882 66.134 5.019 1.49 9.445.26 13.56-2.333 4.117-2.593 7.941-6.546 11.76-10.498 80.86-108.852 195.009-46.843 290.733-67.936M-83.932 883.918c21.915-9.567 43.72-25.833 68.178-27.548 83.427-2.167 194.652 111.637 250.454-50.733 3.004-3.896 6.416-7.82 10.13-10.384 3.713-2.563 7.724-3.766 11.93-2.219 18.17 13.727 36.516 26.768 54.966 38.508a571.076 571.076 0 0018.484 11.284 234.018 234.018 0 0017.41 9.61A228.805 228.805 0 00365 860.197c139.11 48.146 270.695-38.469 406.561-40.628 29.354-2.06 58.62 17.998 87.713 12.272 35.362-9.85 71.242-12.367 106.698-14.154l104.466-7.327c85.21-28.786 177.215-2.075 260.045-59.475 15.536-12.144 34.247-2.402 51.325 7.455 42.57 22.81 82.475 101.082 125.476 83.326 4.943-6.08 9.975-11.69 15.096-16.828 86.98-87.587 197.612-46.797 294.27-67.134M-73.864 860.847c80.86-53.983 170.8 13.41 255.688-14.655 14.42-4.696 25.666-31.28 36.643-51.294 3.648-6.399 7.199-12.894 10.676-18.816 10.43-17.775 20.194-30.437 29.935-20.065 34.655 38.474 69.9 64.298 105.313 80.402a240.759 240.759 0 0017.758 7.24c14.592 5.884 29.783 12.187 44.717 14.826 136.382 5.176 267.275-44.542 400.226-64.922 33.989-6.069 69.094-19.59 106.104-5.324 5.123 1.255 10.232 2.348 15.33 3.174a108.717 108.717 0 0030.523 1.001c4.918-.334 9.831-.675 14.741-1.023l104.935-7.36c75.372 3.617 142.918-37.971 216.648-61.568 50.898-21.996 93.461 70.83 143.928 89.4 11.93 6.534 24.719 1.951 36.134 1.15a44.066 44.066 0 0012.486-7.472c20.429-16.497 39.518-49.373 66.065-40.838 3.855.46 7.71.907 11.554 1.183a96.19 96.19 0 0011.485.197c69.043-20.315 140.283-32.682 211.478-32.283M-72.733 840.367c75.429-47.944 158.422-9.545 237.56-26.15 16.308-1.145 31.843-13.29 45.49-30.83a139.028 139.028 0 0013.01-16.574c8.405-12.463 16.248-27.856 23.388-46.782 6.868-18.906 23.432-16.386 31.5 5.161 13.73 32.202 24.198 64.633 42.908 74.376 22.66 7.623 44.223 17.166 65.786 26.709 5.39 2.385 10.79 4.76 16.196 7.124 34.656 16.946 67.184 36.775 100.144 16.038 100.51-62.325 202.904-51.081 304.613-72.956 20.942-5.154 34.935-39.301 55.837-45.669a34.98 34.98 0 0112.067-2.566c4.24-.118 8.462.583 12.436 2.064 35.532 15.932 68.574 43.096 103.902 36.748 4.89-.242 9.788-.579 14.689-.923l43.885-3.078c21.593-2.96 43.363-2.403 65.15-2.564 5.447-.039 10.895-.122 16.354-.321 58.307 4.213 107.662-39.785 162.939-69.457 50.64-25.662 95.437 52.267 140.923 93.297 17.338 13.527 35.276 12.268 53.214 11.01a47.89 47.89 0 0011.818-6.91c19.502-14.874 38.342-43.49 61.25-39.97 5.012-.458 10.017-.835 15.013-1.26 24.977-2.112 49.722-5.285 74.398-18.532 5.09-2.2 10.181-4.15 15.274-5.854a205.395 205.395 0 0115.297-4.494c40.153-9.353 82.81-8.66 123.198-8.888M-82.022 824.196c83.43-50.105 175.437-23.394 262.468-44.238 4.89-.343 11.672 2.866 16.091-6.838a77.835 77.835 0 009.626-12.008c9.26-14.008 17.287-33.916 22.953-58.267 8.843-37.47 42.745-21.424 59.736 10.553 14.847 24.753 22.31 61.08 41.02 70.823 30.32 11.693 58.224 15.264 86.283 27.63a166.162 166.162 0 0114.056 6.997 93.23 93.23 0 0013.5 10.148c19.62 12.196 37.56 10.938 55.559-.378a355.617 355.617 0 0116.584-6.518c27.622-10.082 55.113-16.395 82.535-21.262 5.48-.971 10.964-1.89 16.448-2.759 46.76-3.958 93.8-10.942 141.693-29.042 30.214-13.174 57.252-48.236 87.547-55.612a137.362 137.362 0 0117.577-5.194c35.491-8.017 72.29-3.228 111.598 19.81 52.639 30.084 106.947 19.112 159.952 5.67 5.299-1.345 10.586-2.714 15.861-4.069 36.706-9.137 73.185-26.436 109.552-46.484 5.158-2.319 10.311-4.47 15.46-6.376a161.086 161.086 0 0115.429-4.893 111.668 111.668 0 0117.604-3.162c10.927-1.722 24.23 1.031 35.902 3.9a61.09 61.09 0 0114.868 6.928 114.894 114.894 0 0114.544 11c31.265 29.407 62.85 82.467 97.801 84.89 4.843.276 9.69-.47 14.226-2.188 22.316-8.935 44.977-36.32 70.475-37.474a576.22 576.22 0 0017.39-3.287c28.949-5.95 57.79-14.596 87.403-30.492 49.267-21.881 98.447-21.648 147.656-20.162M-95.715 811.374C-11.548 752.896 79.429 764.941 170 762.55a47.143 47.143 0 0015.878-7.375c14.613-10.698 24.143-32.555 16.98-76.273 30.213-13.174 64.458-15.576 94.753 19.149 12.444 13.87 18.535 53.975 33.983 63.947 38.9 23.066 76.884 15.167 115.727 32.942a118.007 118.007 0 0116.708 9.358c38.189 30.487 70.721-19.703 107.455-20.368a255.19 255.19 0 0116.957-3.128c9.898-1.496 19.806-2.45 29.726-3.128 4.958-.337 9.92-.603 14.885-.83 58.51.441 117.474-.015 162.839-77.438 5.455-5.159 10.986-9.925 16.562-14.236 33.465-25.873 68.782-35.425 102.615-15.688 116.293 69.229 230.107 9.655 341.256 5.545 35.387-2.482 83.437-41.966 121.766-20.82a59.342 59.342 0 0115.852 13.08c4.243 9.829 8.558 18.763 12.943 26.803 16.63 28.17 34.48 49.031 55.22 57.23a52.347 52.347 0 0014.44 2.926c19.375 1.113 39.185-8.73 58.953-27.149 5.243-1.571 10.534-2.898 15.805-4.23 36.905-9.32 72.762-19.832 110.132-43.09 47.123-29.1 97.935-28.98 146.549-28.752M-109.891 802.213a172.526 172.526 0 0132.938-29.177 151.377 151.377 0 0117.13-9.965c47.244-24.838 97.194-13.6 146.249-19.19 6.233-.09 12.459-.258 18.673-.572 24.856-1.254 49.495-4.824 73.378-14.791 14.163-8.364 3.694-40.795 1.894-66.463 51.068 3.788 109.863-22.449 154.318 73.932 4.29 14.442 14.075 13.755 22.486 16.848 46.433 7.798 90.206 1.043 137.667 23.51 32.271 16.161 60.081-7.9 89.435-9.959 20.487-3.895 42.094-2.134 63.81-1.471 5.427.165 10.863.258 16.304.182 37.815.388 78.07-9.806 107.085-63.431a217.926 217.926 0 0113.805-21.314c43.314-58.788 102.615-71.239 149.19-38.024 98.097 66.82 188.993 30.964 281.174 13.444 66.352-12.025 133.465-13.046 200.327-17.736 8.84-2.462 10.346 13.093 11.493 31.92 2.576 51.85 30.726 79.355 49.785 70.648 19.06-8.707 37.08-32.086 57.586-23.552 5.251.513 10.5 1.27 15.66 1.831 15.48 1.679 30.222 1.565 42.37-12.184 65.75-67.258 138.878-76.072 212.276-88.28M-124.789 795.606c25.199-34.513 53.083-51.419 82.372-59.683a174.905 174.905 0 0117.742-3.993c31.16-2.404 60.513-4.462 91.55-3.886 6.163-.083 12.318-.246 18.461-.57 24.568-1.287 48.888-5.064 72.297-15.918 12.788-4.582-3.601-51.338 1.29-51.68 46.607-36.435 98.102-3.197 149.945 11.592 14.934 2.638 24.544 46.184 41.109 48.708 63.512 17.655 120.331 9.984 181.955 24.087 27.714 5.733 57.141 19.66 85.746 27.571 5.72 1.586 11.408 2.926 17.044 3.913 39.166 6.465 79.166-7.395 105.768-69.191a302.489 302.489 0 0115.196-21.393c62.454-80.252 141.74-97.094 209.862-67.125 47.462 22.466 96.468 66.935 145.478 41.387 77.593-38.608 154.408-18.2 231.054-23.577 32.615-2.287 62.658-41.244 96.56-25.198 8.539 4.928 9.03 17.792 8.086 33.52-.472 7.864-1.306 16.439-1.653 25.127 10.891 94.913 59.563 17.795 88.786 40.16 5.507.42 10.998.754 16.462.765 16.395.04 32.556-2.822 48.293-14.981 17.166-12.26 25.752-53.396 44.55-65.77 39.483-21.195 79.136-16.606 116.73-41.353 12.532-8.249 25.835-5.496 39.275-1.852M-141.377 788.761C-69.388 675.873 35.32 720.12 122.867 706.61c4.89-.343 11.159-4.468 15.537-12.145 5.236-18.793-8.749-54.662 2.407-59.13C196 627.78 252.13 657.007 307.576 653.118c16.564 2.523 31.669 30.944 48.233 33.467 63.255 13.989 124.452-1.358 188.993 30.965 32.4 17.995 69.76 36.563 105.857 37.256a99.337 99.337 0 0017.918-1.23c24.45-2.202 46.252-18.472 66.174-44.959a199.19 199.19 0 0014.242-23.809c59.15-114.7 160.34-143.908 244.363-90.84 36.046 23.266 68.486 65.211 106.595 47.798 66.435-34.14 128.661-34.819 198.696-17.62 43.429 11.696 79.392-12.94 120.506-34.248 15.536-12.145 42.488-25.09 50.467 18.57 2.402 10.887-.432 23.062-3.361 33.862-2.93 10.799-5.956 20.225-3.94 25.61 18.623 31.86 42.226 41.259 62.796 39.403a111.74 111.74 0 0018.074-1.928c18.133-3.368 36.135-10.674 51.649-17.29 17.423-8.592 20.346-60.387 35.881-72.532 33.563-35.52 75.36-23.711 109.18-55.563 15.278-15.814 33.731-9.736 51.308-3.82M-158.57 777.653c74.592-122.866 180.586-60.284 271.482-96.14 11.158-4.467-.684-33.117 3.18-48.128 2.746-7.563 5.493-15.128 8.75-15.357 99.39 15.14 195.516 30.507 293.62 27.31 24.46-1.715 49.694 7.57 76.3 13.075 26.606 5.504 52.01 40.572 75.872 53.638 25.748 16.62 59.347 40.058 89.603 42.082a53.941 53.941 0 0017.685-1.584c18.362-1.406 31.497-24.438 42.768-49.134a229.504 229.504 0 009.075-35.692c11.678-67.15 55.364-51.788 85.833-61.295 49.525-18.217 95.274-43.533 143.426-57.966 21.2-1.487 43.773-6.755 62.396 25.109 51.577 81.138 103.68 29.578 153.204 11.364 11.158-4.467 20.942-5.154 32.872 1.38 79.475 34.96 151.232 29.926 223.157-19.338 18.54-16.043 41.885-10.308 58.877 21.665 15.103 28.421-10.819 56.035-5.408 63.025 29.95 53.175 85.05 67.736 114.066 14.11 14.507-26.812 15.799-78.494 36.741-83.648 36.479-17.302 68.065-34.255 104.287-55.22 14.42-4.696 27.98 1.722 43.049 2.213M-174.431 759.179C-98.653 655.817.39 689.405 90.427 664.665c3.262-.23 6.009-7.792 7.125-15.243-.082-47.9 18.972-56.606 35.795-50.417 100.845 59.258 193.458 1.174 290.445 5.424 59.479 6.884 121.273 46.77 182.979 108.772 15.963 17.306 36.689 32.434 55.12 35.287 4.41.744 8.92.635 13.287-.32 7.549-3.444 15.445-7.683 21.337-18.238a78.84 78.84 0 006.727-19.81c18.288-89.724 56.913-99.804 93.649-113.435 49.524-18.217 94.415-32.418 143.425-57.966 44.632-17.874 88.318-2.51 132.688 45.968 10.81 13.985 24.975 5.619 38.022 4.704 24.204-5.383 44.72-39.987 69.956-30.702 87.372 30.722 167.446 50.901 244.867-13.49 23.432-16.386 48.666-7.098 73.814 24.302 17.85 20.858 22.053 57.413 11.063 87.665 46.515 55.697 80.165-1.938 109.78-70.346 30.476-79.523 97.08-87.88 153.574-81.616M-187.984 731.692c83.321-68.083 178.846-37.934 261.162-102.667 14.162-8.364 28.5-60.96 52.616-44.227 92.692 59.83 178.18 16.983 266.33-11.31 88.405-24.626 176.8 90.781 264.599 150.953 30.897 19.943 42.23-28.757 56.567-81.353 18.458-63.94 61.887-52.246 95.362-65.649 54.417-18.56 105.058-44.22 158.102-58.995 40.255-10.194 81.45 16.397 122.389 39.322 20.598 13.298 42.487-25.092 57.421-22.454 101.02 15.025 193.027 41.737 292.678-9.473 34.848-17.187 86.342 16.054 101.441 114.49 6.605 47.442 43.599 37.478 49.18.236 7.815-52.139 13.227-115.16 44.21-117.332 29.355-2.06 55.791-22.339 84.37-35.404 16.05-4.81 32.615-2.287 49.44-3.699M-195.125 695.678c84.967-16.944 169.51-26.559 249.335-80.064 20.17-16.157 36.138-68.865 65.148-52.474 52.611 25.79 104.363 62.696 152.86 29.814 130.553-101.284 262.465 3.701 394.119 105.018 19.224 17.076 24.894-42.282 33.907-53.969 113.819-129.59 255.783-161.658 396.624-116.261 13.304 2.752 10.217-41.251 20.26-38.27 52.441.006 102.475 59.143 154.916 59.15 95.613 8.036 207.375-150.893 291.211 86.44 2.404 10.886 14.076 13.755 14.935 2.637 12.46-196.18 119.57-141.049 185.588-172.557M-190.467 655.514c80.053 19.558 165.712 2.49 232.579-72.215 15.278-15.815 34.164-50.302 55.878-44.455 48.321 11.353 95.438 52.266 143.847 41.5 82.397-16.834 163.683-96.236 250.108-32.285 49.865 33.353 98.01 88.937 150.452 88.944 11.673 2.866 25.747 16.62 36.392 4.818 113.562-133.257 260.243-121.435 391.65-163.817 4.633-4.01 12.62-30.365 24.549-23.832 133.542 104.87 255.597 22.608 385.97 35.574 28.237 5.39 51.408 55.355 77.325 97.758 3.776 7.105 10.295 6.648 10.037 2.98 20.27-178.304 130.554-101.283 193.515-143.132M-181.507 615.876c65.944 55.864 135.382 17.829 192.375-34.074 26.18-23.946 45.41-76.886 77.679-60.723 113.633 54.675 215.945 18.018 323.405-15.314 49.782-14.547 100.675 33.474 148.05 78.057 10.295 6.648 22.743 20.515 33.902 16.047 25.834-5.497 49.524-18.216 75.874-16.377 76.045 9.41 146.43-61.861 222.046-81.906 20.943-5.153 41.371-17.644 63.687-26.577 23.947-9.05 51.068 3.789 72.355-19.818 4.633-4.01 8.495-19.02 14.764-23.145 64.46-15.577 129.082 64.647 194.57 63.738 104.627-3.654 211.748-88.553 316.708 29.377 47.473-117.566 140.42-54.07 208.305-95.325M-173.89 578.463c69.823 70.358 143.897 28.311 200.215-56.709 16.394-23.26 37.338-28.414 59.309-18.903 132.086 60.751 249.507-17.5 376.361-7.972 42.657.692 90.114 93.175 127.194 61.093 24.548-23.832 57.421-22.453 84.285-13.282 109.344 40.237 202.904-51.081 307.191-106.302 20.685-8.821 41.716-36.091 65.58-23.024 145.904 70.836 281.088 35.56 421.334 25.723 19.826 2.294 41.452 30.257 58.877 21.665 79.993-27.721 160.16-29.66 238.571-49.195" stroke="#FFF" stroke-width="3.001" stroke-linecap="round" stroke-dasharray="0,10"/>
  </g>
</svg>
